{
.appVersion = "1300";
classes = (
{
code = "uni0842.Init uni0842.Medi uni084A.Init uni084A.Medi uni084D.Init uni084D.Medi uni0850.Init uni0850.Medi uni0851.Init uni0851.Medi";
name = calt1;
},
{
code = "uni0840 uni0841 uni0842 uni0843 uni0844 uni0845 uni0846 uni0847 uni0848 uni0849 uni084A uni084B uni084C uni084D uni084E uni084F uni0850 uni0851 uni0852 uni0853 uni0854 uni0855";
name = fina1;
},
{
code = "uni0840.Fina uni0841.Fina uni0842.Fina uni0843.Fina uni0844.Fina uni0845.Fina uni0846.Fina uni0847.Fina uni0848.Fina uni0849.Fina uni084A.Fina uni084B.Fina uni084C.Fina uni084D.Fina uni084E.Fina uni084F.Fina uni0850.Fina uni0851.Fina uni0852.Fina uni0853.Fina uni0854.Fina uni0855.Fina";
name = fina2;
},
{
code = "uni0841 uni0842 uni0843 uni0844 uni0845 uni0848 uni084A uni084B uni084C uni084D uni084E uni084F uni0850 uni0851 uni0852 uni0853 uni0855";
name = init1;
},
{
code = "uni0841.Init uni0842.Init uni0843.Init uni0844.Init uni0845.Init uni0848.Init uni084A.Init uni084B.Init uni084C.Init uni084D.Init uni084E.Init uni084F.Init uni0850.Init uni0851.Init uni0852.Init uni0853.Init uni0855.Init";
name = init2;
},
{
code = "uni0840 uni0841 uni0842 uni0843 uni0844 uni0845 uni0846 uni0847 uni0848 uni0849 uni084A uni084B uni084C uni084D uni084E uni084F uni0850 uni0851 uni0852 uni0853 uni0854 uni0855 uni0856 uni0857 uni0858";
name = isol1;
},
{
code = "uni0840.Isol uni0841.Isol uni0842.Isol uni0843.Isol uni0844.Isol uni0845.Isol uni0846.Isol uni0847.Isol uni0848.Isol uni0849.Isol uni084A.Isol uni084B.Isol uni084C.Isol uni084D.Isol uni084E.Isol uni084F.Isol uni0850.Isol uni0851.Isol uni0852.Isol uni0853.Isol uni0854.Isol uni0855.Isol uni0856.Isol uni0857.Isol uni0858.Isol";
name = isol2;
},
{
code = "uni0841 uni0842 uni0843 uni0844 uni0845 uni0847 uni0848 uni084A uni084B uni084C uni084D uni084E uni084F uni0850 uni0851 uni0852 uni0853 uni0855";
name = medi1;
},
{

glyphs = (
{
glyphname = .notdef;
lastChange = "2017-02-17 15:09:35 +0000";
layers = (
{
layerId = UUID0;
paths = (
{
closed = 1;
nodes = (
"505 0 LINE",
"505 714 LINE",
"94 714 LINE",
"94 0 LINE"
);
},
{
closed = 1;
nodes = (
"145 663 LINE",
"454 663 LINE",
"454 51 LINE",
"145 51 LINE"
);
}
);
width = 600;
}
);
},
{
glyphname = uni0640;
lastChange = "2020-03-31 03:11:37 +0000";
layers = (
{
layerId = UUID0;
paths = (
{
closed = 1;
nodes = (
"375 0 LINE",
"375 76 LINE",
"0 76 LINE SMOOTH",
"-21 76 OFFCURVE",
"-39 62 OFFCURVE",
"-39 38 CURVE SMOOTH",
"-39 14 OFFCURVE",
"-21 0 OFFCURVE",
"0 0 CURVE SMOOTH"
);
}
);
width = 375;
}
);
unicode = 0640;
script = arabic;
category = Letter;
subCategory = Other;
},
{
glyphname = uni0840;
lastChange = "2020-03-30 20:46:49 +0000";
layers = (
{
anchors = (
{
name = bottom;
position = "{267, -88}";
}
);
layerId = UUID0;
paths = (
{
closed = 1;
nodes = (
"383 -46 OFFCURVE",
"466 27 OFFCURVE",
"466 133 CURVE SMOOTH",
"466 236 OFFCURVE",
"395 328 OFFCURVE",
"276 328 CURVE SMOOTH",
"151 328 OFFCURVE",
"68 229 OFFCURVE",
"68 118 CURVE SMOOTH",
"68 22 OFFCURVE",
"136 -46 OFFCURVE",
"268 -46 CURVE SMOOTH"
);
},
{
closed = 1;
nodes = (
"190 30 OFFCURVE",
"140 58 OFFCURVE",
"140 128 CURVE SMOOTH",
"140 197 OFFCURVE",
"202 255 OFFCURVE",
"276 255 CURVE SMOOTH",
"346 255 OFFCURVE",
"395 207 OFFCURVE",
"395 133 CURVE SMOOTH",
"395 58 OFFCURVE",
"336 30 OFFCURVE",
"268 30 CURVE SMOOTH"
);
}
);
width = 534;
}
);
unicode = 0840;
script = mand;
category = Letter;
subCategory = Other;
},
{
glyphname = uni0840.Fina;
lastChange = "2020-03-30 20:46:49 +0000";
layers = (
{
anchors = (
{
name = bottom;
position = "{274, -49}";
}
);
layerId = UUID0;
paths = (
{
closed = 1;
nodes = (
"545 0 LINE",
"545 76 LINE",
"472 76 LINE",
"469 228 OFFCURVE",
"420 327 OFFCURVE",
"292 327 CURVE SMOOTH",
"160 327 OFFCURVE",
"63 213 OFFCURVE",
"63 93 CURVE SMOOTH",
"63 20 OFFCURVE",
"120 0 OFFCURVE",
"164 0 CURVE SMOOTH"
);
},
{
closed = 1;
nodes = (
"148 76 OFFCURVE",
"136 90 OFFCURVE",
"136 109 CURVE SMOOTH",
"136 170 OFFCURVE",
"199 254 OFFCURVE",
"285 254 CURVE SMOOTH",
"352 254 OFFCURVE",
"391 221 OFFCURVE",
"395 76 CURVE",
"173 76 LINE SMOOTH"
);
}
);
width = 545;
}
);
script = mand;
category = Letter;
subCategory = Other;
},
{
glyphname = uni0841;
lastChange = "2020-03-30 20:46:49 +0000";
layers = (
{
anchors = (
{
name = bottom;
position = "{423, -49}";
}
);
layerId = UUID0;
paths = (
{
closed = 1;
nodes = (
"845 0 LINE",
"845 76 LINE",
"536 76 LINE",
"536 237 LINE",
"574 237 LINE SMOOTH",
"736 237 OFFCURVE",
"793 294 OFFCURVE",
"793 409 CURVE SMOOTH",
"793 434 OFFCURVE",
"790 479 OFFCURVE",
"784 500 CURVE",
"714 481 LINE",
"720 445 OFFCURVE",
"721 419 OFFCURVE",
"721 401 CURVE SMOOTH",
"721 326 OFFCURVE",
"683 311 OFFCURVE",
"551 311 CURVE SMOOTH",
"292 311 LINE",
"321 334 OFFCURVE",
"354 372 OFFCURVE",
"368 389 CURVE SMOOTH",
"430 462 LINE",
"375 498 LINE",
"269 374 LINE SMOOTH",
"248 349 OFFCURVE",
"216 313 OFFCURVE",
"200 299 CURVE",
"200 237 LINE",
"462 237 LINE",
"462 76 LINE",
"49 76 LINE",
"49 0 LINE"
);
}
);
width = 894;
}
);
unicode = 0841;
script = mand;
category = Letter;
subCategory = Other;
},
{
glyphname = uni0841.Fina;
lastChange = "2020-03-30 20:46:49 +0000";
layers = (
{
anchors = (
{
name = bottom;
position = "{423, -49}";
}
);
layerId = UUID0;
paths = (
{
closed = 1;
nodes = (
"870 0 LINE",
"870 76 LINE",
"536 76 LINE",
"536 237 LINE",
"574 237 LINE SMOOTH",
"736 237 OFFCURVE",
"793 294 OFFCURVE",
"793 409 CURVE SMOOTH",
"793 434 OFFCURVE",
"790 479 OFFCURVE",
"784 500 CURVE",
"715 481 LINE",
"720 445 OFFCURVE",
"721 419 OFFCURVE",
"721 401 CURVE SMOOTH",
"721 326 OFFCURVE",
"683 311 OFFCURVE",
"551 311 CURVE SMOOTH",
"292 311 LINE",
"321 334 OFFCURVE",
"354 372 OFFCURVE",
"368 389 CURVE SMOOTH",
"430 462 LINE",
"375 498 LINE",
"269 374 LINE SMOOTH",
"248 349 OFFCURVE",
"216 313 OFFCURVE",
"200 299 CURVE",
"200 237 LINE",
"462 237 LINE",
"462 76 LINE",
"49 76 LINE",
"49 0 LINE"
);
}
);
width = 870;
}
);
script = mand;
category = Letter;
subCategory = Other;
},
{
glyphname = uni0841.Init;
lastChange = "2020-03-30 20:46:49 +0000";
layers = (
{
anchors = (
{
name = bottom;
position = "{304, -49}";
}
);
layerId = UUID0;
paths = (
{
closed = 1;
nodes = (
"727 0 LINE",
"727 76 LINE",
"417 76 LINE",
"417 237 LINE",
"455 237 LINE SMOOTH",
"617 237 OFFCURVE",
"674 294 OFFCURVE",
"674 409 CURVE SMOOTH",
"674 434 OFFCURVE",
"670 479 OFFCURVE",
"665 500 CURVE",
"596 481 LINE",
"601 445 OFFCURVE",
"602 419 OFFCURVE",
"602 401 CURVE SMOOTH",
"602 326 OFFCURVE",
"563 311 OFFCURVE",
"432 311 CURVE SMOOTH",
"173 311 LINE",
"202 334 OFFCURVE",
"235 372 OFFCURVE",
"249 389 CURVE SMOOTH",
"311 462 LINE",
"256 498 LINE",
"150 374 LINE SMOOTH",
"129 349 OFFCURVE",
"97 313 OFFCURVE",
"81 299 CURVE",
"81 237 LINE",
"343 237 LINE",
"343 76 LINE",
"0 76 LINE SMOOTH",
"-22 76 OFFCURVE",
"-40 62 OFFCURVE",
"-40 38 CURVE SMOOTH",
"-40 14 OFFCURVE",
"-22 0 OFFCURVE",
"0 0 CURVE SMOOTH"
);
}
);
width = 775;
}
);
script = mand;
category = Letter;
subCategory = Other;
},
{
glyphname = uni0841.Medi;
lastChange = "2020-03-30 20:46:49 +0000";
layers = (
{
anchors = (
{
name = bottom;
position = "{304, -49}";
}
);
layerId = UUID0;
paths = (
{
closed = 1;
nodes = (
"750 0 LINE",
"750 76 LINE",
"417 76 LINE",
"417 237 LINE",
"455 237 LINE SMOOTH",
"617 237 OFFCURVE",
"674 294 OFFCURVE",
"674 409 CURVE SMOOTH",
"674 434 OFFCURVE",
"670 479 OFFCURVE",
"665 500 CURVE",
"595 481 LINE",
"601 445 OFFCURVE",
"602 419 OFFCURVE",
"602 401 CURVE SMOOTH",
"602 326 OFFCURVE",
"563 311 OFFCURVE",
"432 311 CURVE SMOOTH",
"172 311 LINE",
"202 334 OFFCURVE",
"235 372 OFFCURVE",
"249 389 CURVE SMOOTH",
"311 462 LINE",
"255 498 LINE",
"150 374 LINE SMOOTH",
"129 349 OFFCURVE",
"97 313 OFFCURVE",
"81 299 CURVE",
"81 237 LINE",
"343 237 LINE",
"343 76 LINE",
"0 76 LINE SMOOTH",
"-22 76 OFFCURVE",
"-40 61 OFFCURVE",
"-40 38 CURVE SMOOTH",
"-40 14 OFFCURVE",
"-22 0 OFFCURVE",
"0 0 CURVE SMOOTH"
);
}
);
width = 750;
}
);
script = mand;
category = Letter;
subCategory = Other;
},
{
glyphname = uni0842;
lastChange = "2020-03-30 20:46:49 +0000";
layers = (
{
anchors = (
{
name = bottom;
position = "{215, -49}";
}
);
layerId = UUID0;
paths = (
{
closed = 1;
nodes = (
"428 0 LINE",
"428 75 LINE",
"356 152 OFFCURVE",
"224 316 OFFCURVE",
"187 423 CURVE",
"201 421 OFFCURVE",
"222 420 OFFCURVE",
"235 420 CURVE SMOOTH",
"351 420 OFFCURVE",
"405 474 OFFCURVE",
"405 554 CURVE SMOOTH",
"405 635 OFFCURVE",
"352 714 OFFCURVE",
"256 714 CURVE SMOOTH",
"145 714 OFFCURVE",
"97 604 OFFCURVE",
"97 520 CURVE SMOOTH",
"97 356 OFFCURVE",
"231 192 OFFCURVE",
"328 76 CURVE",
"49 76 LINE",
"49 0 LINE"
);
},
{
closed = 1;
nodes = (
"220 487 OFFCURVE",
"190 488 OFFCURVE",
"174 493 CURVE",
"172 501 OFFCURVE",
"171 511 OFFCURVE",
"171 525 CURVE SMOOTH",
"171 588 OFFCURVE",
"202 643 OFFCURVE",
"256 643 CURVE SMOOTH",
"305 643 OFFCURVE",
"333 604 OFFCURVE",
"333 557 CURVE SMOOTH",
"333 520 OFFCURVE",
"308 487 OFFCURVE",
"229 487 CURVE SMOOTH"
);
}
);
width = 477;
}
);
unicode = 0842;
script = mand;
category = Letter;
subCategory = Other;
},
{
glyphname = uni0842.Fina;
lastChange = "2020-03-30 20:46:49 +0000";
layers = (
{
anchors = (
{
name = bottom;
position = "{248, -49}";
}
);
layerId = UUID0;
paths = (
{
closed = 1;
nodes = (
"520 0 LINE",
"520 76 LINE",
"460 76 LINE",
"388 154 OFFCURVE",
"257 316 OFFCURVE",
"220 423 CURVE",
"234 421 OFFCURVE",
"255 420 OFFCURVE",
"269 420 CURVE SMOOTH",
"384 420 OFFCURVE",
"438 474 OFFCURVE",
"438 554 CURVE SMOOTH",
"438 635 OFFCURVE",
"385 714 OFFCURVE",
"290 714 CURVE SMOOTH",
"178 714 OFFCURVE",
"130 604 OFFCURVE",
"130 520 CURVE SMOOTH",
"130 356 OFFCURVE",
"265 192 OFFCURVE",
"361 76 CURVE",
"49 76 LINE",
"49 0 LINE"
);
},
{
closed = 1;
nodes = (
"253 487 OFFCURVE",
"224 488 OFFCURVE",
"207 493 CURVE",
"205 501 OFFCURVE",
"204 511 OFFCURVE",
"204 525 CURVE SMOOTH",
"204 588 OFFCURVE",
"235 643 OFFCURVE",
"290 643 CURVE SMOOTH",
"338 643 OFFCURVE",
"367 604 OFFCURVE",
"367 557 CURVE SMOOTH",
"367 520 OFFCURVE",
"341 487 OFFCURVE",
"262 487 CURVE SMOOTH"
);
}
);
width = 520;
}
);
script = mand;
category = Letter;
subCategory = Other;
},
{
glyphname = uni0842.Init;
lastChange = "2020-03-30 20:46:49 +0000";
layers = (
{
anchors = (
{
name = bottom;
position = "{220, -49}";
}
);
layerId = UUID0;
paths = (
{
closed = 1;
nodes = (
"434 0 LINE",
"434 75 LINE",
"362 152 OFFCURVE",
"229 316 OFFCURVE",
"193 423 CURVE",
"207 421 OFFCURVE",
"228 420 OFFCURVE",
"241 420 CURVE SMOOTH",
"357 420 OFFCURVE",
"411 474 OFFCURVE",
"411 554 CURVE SMOOTH",
"411 635 OFFCURVE",
"357 714 OFFCURVE",
"262 714 CURVE SMOOTH",
"151 714 OFFCURVE",
"103 604 OFFCURVE",
"103 520 CURVE SMOOTH",
"103 356 OFFCURVE",
"237 192 OFFCURVE",
"333 76 CURVE",
"0 76 LINE SMOOTH",
"-22 76 OFFCURVE",
"-40 62 OFFCURVE",
"-40 38 CURVE SMOOTH",
"-40 14 OFFCURVE",
"-22 0 OFFCURVE",
"0 0 CURVE SMOOTH"
);
},
{
closed = 1;
nodes = (
"226 487 OFFCURVE",
"196 488 OFFCURVE",
"180 493 CURVE",
"178 501 OFFCURVE",
"177 511 OFFCURVE",
"177 525 CURVE SMOOTH",
"177 588 OFFCURVE",
"208 643 OFFCURVE",
"262 643 CURVE SMOOTH",
"311 643 OFFCURVE",
"339 604 OFFCURVE",
"339 557 CURVE SMOOTH",
"339 520 OFFCURVE",
"313 487 OFFCURVE",
"234 487 CURVE SMOOTH"
);
}
);
width = 482;
}
);
script = mand;
category = Letter;
subCategory = Other;
},
{
glyphname = uni0842.Medi;
lastChange = "2020-03-30 20:46:49 +0000";
layers = (
{
anchors = (
{
name = bottom;
position = "{220, -49}";
}
);
layerId = UUID0;
paths = (
{
closed = 1;
nodes = (
"492 0 LINE",
"492 76 LINE",
"433 76 LINE",
"361 154 OFFCURVE",
"229 316 OFFCURVE",
"193 423 CURVE",
"207 421 OFFCURVE",
"228 420 OFFCURVE",
"241 420 CURVE SMOOTH",
"357 420 OFFCURVE",
"411 474 OFFCURVE",
"411 554 CURVE SMOOTH",
"411 635 OFFCURVE",
"357 714 OFFCURVE",
"262 714 CURVE SMOOTH",
"151 714 OFFCURVE",
"103 604 OFFCURVE",
"103 520 CURVE SMOOTH",
"103 356 OFFCURVE",
"237 192 OFFCURVE",
"333 76 CURVE",
"0 76 LINE SMOOTH",
"-22 76 OFFCURVE",
"-40 62 OFFCURVE",
"-40 38 CURVE SMOOTH",
"-40 14 OFFCURVE",
"-22 0 OFFCURVE",
"0 0 CURVE SMOOTH"
);
},
{
closed = 1;
nodes = (
"226 487 OFFCURVE",
"196 488 OFFCURVE",
"180 493 CURVE",
"178 501 OFFCURVE",
"177 511 OFFCURVE",
"177 525 CURVE SMOOTH",
"177 588 OFFCURVE",
"208 643 OFFCURVE",
"262 643 CURVE SMOOTH",
"311 643 OFFCURVE",
"339 604 OFFCURVE",
"339 557 CURVE SMOOTH",
"339 520 OFFCURVE",
"313 487 OFFCURVE",
"234 487 CURVE SMOOTH"
);
}
);
width = 492;
}
);
script = mand;
category = Letter;
subCategory = Other;
},
{
glyphname = uni0843;
lastChange = "2020-03-30 20:46:49 +0000";
layers = (
{
anchors = (
{
name = bottom;
position = "{352, -49}";
}
);
layerId = UUID0;
paths = (
{
closed = 1;
nodes = (
"579 0 LINE",
"579 493 LINE",
"505 493 LINE",
"505 311 LINE",
"292 311 LINE",
"292 493 LINE",
"219 493 LINE",
"219 237 LINE",
"505 237 LINE",
"505 76 LINE",
"49 76 LINE",
"49 0 LINE"
);
}
);
width = 662;
}
);
unicode = 0843;
script = mand;
category = Letter;
subCategory = Other;
},
{
glyphname = uni0843.Fina;
lastChange = "2020-03-30 20:46:49 +0000";
layers = (
{
anchors = (
{
name = bottom;
position = "{356, -49}";
}
);
layerId = UUID0;
paths = (
{
closed = 1;
nodes = (
"687 0 LINE",
"687 76 LINE",
"583 76 LINE",
"583 493 LINE",
"510 493 LINE",
"510 311 LINE",
"298 311 LINE",
"298 493 LINE",
"224 493 LINE",
"224 237 LINE",
"510 237 LINE",
"510 76 LINE",
"49 76 LINE",
"49 0 LINE"
);
}
);
width = 687;
}
);
script = mand;
category = Letter;
subCategory = Other;
},
{
glyphname = uni0843.Init;
lastChange = "2020-03-30 20:46:49 +0000";
layers = (
{
anchors = (
{
name = bottom;
position = "{225, -49}";
}
);
layerId = UUID0;
paths = (
{
closed = 1;
nodes = (
"451 0 LINE",
"451 493 LINE",
"377 493 LINE",
"377 311 LINE",
"165 311 LINE",
"165 493 LINE",
"92 493 LINE",
"92 237 LINE",
"377 237 LINE",
"377 76 LINE",
"0 76 LINE SMOOTH",
"-22 76 OFFCURVE",
"-40 62 OFFCURVE",
"-40 38 CURVE SMOOTH",
"-40 14 OFFCURVE",
"-22 0 OFFCURVE",
"0 0 CURVE SMOOTH"
);
}
);
width = 534;
}
);
script = mand;
category = Letter;
subCategory = Other;
},
{
glyphname = uni0843.Medi;
lastChange = "2020-03-30 20:46:49 +0000";
layers = (
{
anchors = (
{
name = bottom;
position = "{225, -49}";
}
);
layerId = UUID0;
paths = (
{
closed = 1;
nodes = (
"555 0 LINE",
"555 76 LINE",
"451 76 LINE",
"451 493 LINE",
"377 493 LINE",
"377 311 LINE",
"165 311 LINE",
"165 493 LINE",
"92 493 LINE",
"92 237 LINE",
"377 237 LINE",
"377 76 LINE",
"0 76 LINE SMOOTH",
"-21 76 OFFCURVE",
"-40 62 OFFCURVE",
"-40 38 CURVE SMOOTH",
"-40 14 OFFCURVE",
"-21 0 OFFCURVE",
"0 0 CURVE"
);
}
);
width = 555;
}
);
script = mand;
category = Letter;
subCategory = Other;
},
{
glyphname = uni0844;
lastChange = "2020-03-30 20:46:49 +0000";
layers = (
{
anchors = (
{
name = bottom;
position = "{564, -49}";
}
);
layerId = UUID0;
paths = (
{
closed = 1;
nodes = (
"186 0 LINE SMOOTH",
"265 0 OFFCURVE",
"323 24 OFFCURVE",
"351 60 CURVE",
"372 24 OFFCURVE",
"409 0 OFFCURVE",
"466 0 CURVE SMOOTH",
"518 0 OFFCURVE",
"555 24 OFFCURVE",
"580 60 CURVE",
"596 28 OFFCURVE",
"626 0 OFFCURVE",
"687 0 CURVE SMOOTH",
"785 0 OFFCURVE",
"837 75 OFFCURVE",
"837 170 CURVE SMOOTH",
"837 189 OFFCURVE",
"835 209 OFFCURVE",
"831 229 CURVE",
"765 215 LINE",
"766 205 OFFCURVE",
"767 195 OFFCURVE",
"767 185 CURVE SMOOTH",
"767 132 OFFCURVE",
"750 76 OFFCURVE",
"681 76 CURVE SMOOTH",
"649 76 OFFCURVE",
"620 95 OFFCURVE",
"616 131 CURVE",
"619 146 OFFCURVE",
"620 157 OFFCURVE",
"620 174 CURVE SMOOTH",
"620 181 OFFCURVE",
"620 194 OFFCURVE",
"619 201 CURVE",
"551 193 LINE",
"551 126 OFFCURVE",
"529 76 OFFCURVE",
"461 76 CURVE SMOOTH",
"430 76 OFFCURVE",
"397 94 OFFCURVE",
"391 135 CURVE",
"393 147 OFFCURVE",
"394 161 OFFCURVE",
"394 174 CURVE SMOOTH",
"394 181 OFFCURVE",
"394 189 OFFCURVE",
"393 196 CURVE",
"326 188 LINE",
"323 121 OFFCURVE",
"296 76 OFFCURVE",
"195 76 CURVE SMOOTH",
"49 76 LINE",
"49 0 LINE"
);
}
);
width = 901;
}
);
unicode = 0844;
script = mand;
category = Letter;
subCategory = Other;
},
{
glyphname = uni0844.Fina;
lastChange = "2020-03-30 20:46:49 +0000";
layers = (
{
anchors = (
{
name = bottom;
position = "{461, -49}";
}
);
layerId = UUID0;
paths = (
{
closed = 1;
nodes = (
"186 0 LINE SMOOTH",
"265 0 OFFCURVE",
"323 23 OFFCURVE",
"351 59 CURVE",
"372 25 OFFCURVE",
"409 0 OFFCURVE",
"466 0 CURVE SMOOTH",
"519 0 OFFCURVE",
"557 25 OFFCURVE",
"582 62 CURVE",
"604 27 OFFCURVE",
"649 0 OFFCURVE",
"729 0 CURVE SMOOTH",
"749 0 LINE",
"749 76 LINE",
"732 76 LINE SMOOTH",
"671 76 OFFCURVE",
"625 96 OFFCURVE",
"617 134 CURVE",
"619 147 OFFCURVE",
"620 160 OFFCURVE",
"620 174 CURVE SMOOTH",
"620 181 OFFCURVE",
"620 194 OFFCURVE",
"619 201 CURVE",
"551 193 LINE",
"551 126 OFFCURVE",
"529 76 OFFCURVE",
"461 76 CURVE SMOOTH",
"430 76 OFFCURVE",
"397 94 OFFCURVE",
"391 135 CURVE",
"393 147 OFFCURVE",
"394 161 OFFCURVE",
"394 174 CURVE SMOOTH",
"394 181 OFFCURVE",
"394 189 OFFCURVE",
"393 196 CURVE",
"326 188 LINE",
"323 121 OFFCURVE",
"296 76 OFFCURVE",
"195 76 CURVE SMOOTH",
"49 76 LINE",
"49 0 LINE"
);
}
);
width = 749;
}
);
script = mand;
category = Letter;
subCategory = Other;
},
{
glyphname = uni0844.Init;
lastChange = "2020-03-30 20:46:49 +0000";
layers = (
{
anchors = (
{
name = bottom;
position = "{398, -49}";
}
);
layerId = UUID0;
paths = (
{
closed = 1;
nodes = (
"29 0 LINE SMOOTH",
"108 0 OFFCURVE",
"159 23 OFFCURVE",
"187 59 CURVE",
"208 25 OFFCURVE",
"242 0 OFFCURVE",
"299 0 CURVE SMOOTH",
"351 0 OFFCURVE",
"389 24 OFFCURVE",
"414 60 CURVE",
"430 28 OFFCURVE",
"459 0 OFFCURVE",
"520 0 CURVE SMOOTH",
"618 0 OFFCURVE",
"671 75 OFFCURVE",
"671 170 CURVE SMOOTH",
"671 189 OFFCURVE",
"669 209 OFFCURVE",
"664 229 CURVE",
"598 215 LINE",
"599 205 OFFCURVE",
"600 194 OFFCURVE",
"600 184 CURVE SMOOTH",
"600 131 OFFCURVE",
"584 76 OFFCURVE",
"514 76 CURVE SMOOTH",
"483 76 OFFCURVE",
"454 94 OFFCURVE",
"450 131 CURVE",
"452 146 OFFCURVE",
"454 157 OFFCURVE",
"454 174 CURVE SMOOTH",
"454 181 OFFCURVE",
"454 194 OFFCURVE",
"453 201 CURVE",
"385 193 LINE",
"384 126 OFFCURVE",
"363 76 OFFCURVE",
"295 76 CURVE SMOOTH",
"264 76 OFFCURVE",
"231 94 OFFCURVE",
"225 135 CURVE",
"227 147 OFFCURVE",
"228 161 OFFCURVE",
"228 174 CURVE SMOOTH",
"228 181 OFFCURVE",
"228 189 OFFCURVE",
"227 196 CURVE",
"159 188 LINE",
"159 126 OFFCURVE",
"140 76 OFFCURVE",
"39 76 CURVE SMOOTH",
"0 76 LINE SMOOTH",
"-21 76 OFFCURVE",
"-40 62 OFFCURVE",
"-40 38 CURVE SMOOTH",
"-40 14 OFFCURVE",
"-21 0 OFFCURVE",
"0 0 CURVE SMOOTH"
);
}
);
width = 734;
}
);
script = mand;
category = Letter;
subCategory = Other;
},
{
glyphname = uni0844.Medi;
lastChange = "2020-03-30 20:46:49 +0000";
layers = (
{
anchors = (
{
name = bottom;
position = "{295, -49}";
}
);
layerId = UUID0;
paths = (
{
closed = 1;
nodes = (
"29 0 LINE SMOOTH",
"108 0 OFFCURVE",
"159 23 OFFCURVE",
"187 59 CURVE",
"208 25 OFFCURVE",
"242 0 OFFCURVE",
"299 0 CURVE SMOOTH",
"352 0 OFFCURVE",
"391 25 OFFCURVE",
"416 62 CURVE",
"437 27 OFFCURVE",
"482 0 OFFCURVE",
"563 0 CURVE SMOOTH",
"583 0 LINE",
"583 76 LINE",
"565 76 LINE SMOOTH",
"505 76 OFFCURVE",
"459 96 OFFCURVE",
"450 134 CURVE",
"453 147 OFFCURVE",
"454 160 OFFCURVE",
"454 174 CURVE SMOOTH",
"454 181 OFFCURVE",
"454 194 OFFCURVE",
"453 201 CURVE",
"385 193 LINE",
"384 126 OFFCURVE",
"363 76 OFFCURVE",
"295 76 CURVE SMOOTH",
"264 76 OFFCURVE",
"231 94 OFFCURVE",
"225 135 CURVE",
"227 147 OFFCURVE",
"228 161 OFFCURVE",
"228 174 CURVE SMOOTH",
"228 181 OFFCURVE",
"228 189 OFFCURVE",
"227 196 CURVE",
"159 188 LINE",
"159 126 OFFCURVE",
"140 76 OFFCURVE",
"39 76 CURVE SMOOTH",
"0 76 LINE SMOOTH",
"-21 76 OFFCURVE",
"-40 62 OFFCURVE",
"-40 38 CURVE SMOOTH",
"-40 14 OFFCURVE",
"-21 0 OFFCURVE",
"0 0 CURVE SMOOTH"
);
}
);
width = 583;
}
);
script = mand;
category = Letter;
subCategory = Other;
},
{
glyphname = uni0845;
lastChange = "2020-03-30 20:46:49 +0000";
layers = (
{
anchors = (
{
name = bottom;
position = "{171, -49}";
}
);
layerId = UUID0;
paths = (
{
closed = 1;
nodes = (
"178 0 LINE SMOOTH",
"284 0 OFFCURVE",
"333 33 OFFCURVE",
"333 120 CURVE SMOOTH",
"333 159 OFFCURVE",
"320 250 OFFCURVE",
"264 337 CURVE",
"203 293 LINE",
"238 232 OFFCURVE",
"260 162 OFFCURVE",
"260 125 CURVE SMOOTH",
"260 81 OFFCURVE",
"234 76 OFFCURVE",
"186 76 CURVE SMOOTH",
"49 76 LINE",
"49 0 LINE"
);
}
);
width = 412;
}
);
unicode = 0845;
script = mand;
category = Letter;
subCategory = Other;
},
{
glyphname = uni0845.Fina;
lastChange = "2020-03-30 20:46:49 +0000";
layers = (
{
anchors = (
{
name = bottom;
position = "{203, -49}";
}
);
layerId = UUID0;
paths = (
{
closed = 1;
nodes = (
"463 0 LINE",
"463 76 LINE",
"359 76 LINE",
"359 311 LINE",
"286 311 LINE",
"286 76 LINE",
"49 76 LINE",
"49 0 LINE"
);
}
);
width = 463;
}
);
script = mand;
category = Letter;
subCategory = Other;
},
{
glyphname = uni0845.Init;
lastChange = "2020-03-30 20:46:49 +0000";
layers = (
{
anchors = (
{
name = bottom;
position = "{83, -49}";
}
);
layerId = UUID0;
paths = (
{
closed = 1;
nodes = (
"55 0 LINE SMOOTH",
"145 0 OFFCURVE",
"211 33 OFFCURVE",
"211 132 CURVE SMOOTH",
"211 172 OFFCURVE",
"198 250 OFFCURVE",
"142 337 CURVE",
"81 293 LINE",
"115 232 OFFCURVE",
"138 175 OFFCURVE",
"138 138 CURVE SMOOTH",
"138 95 OFFCURVE",
"115 76 OFFCURVE",
"53 76 CURVE SMOOTH",
"0 76 LINE SMOOTH",
"-22 76 OFFCURVE",
"-40 62 OFFCURVE",
"-40 38 CURVE SMOOTH",
"-40 14 OFFCURVE",
"-22 0 OFFCURVE",
"0 0 CURVE SMOOTH"
);
}
);
width = 289;
}
);
script = mand;
category = Letter;
subCategory = Other;
},
{
glyphname = uni0845.Medi;
lastChange = "2020-03-30 20:46:49 +0000";
layers = (
{
anchors = (
{
name = bottom;
position = "{68, -49}";
}
);
layerId = UUID0;
paths = (
{
closed = 1;
nodes = (
"286 0 LINE",
"286 76 LINE",
"181 76 LINE",
"181 311 LINE",
"108 311 LINE",
"108 76 LINE",
"0 76 LINE SMOOTH",
"-21 76 OFFCURVE",
"-39 62 OFFCURVE",
"-39 38 CURVE SMOOTH",
"-39 14 OFFCURVE",
"-21 0 OFFCURVE",
"0 0 CURVE"
);
}
);
width = 286;
}
);
script = mand;
category = Letter;
subCategory = Other;
},
{
glyphname = uni0846;
lastChange = "2020-03-30 20:46:49 +0000";
layers = (
{
anchors = (
{
name = bottom;
position = "{124, -189}";
}
);
layerId = UUID0;
paths = (
{
closed = 1;
nodes = (
"161 -159 LINE",
"161 694 LINE",
"88 694 LINE",
"88 -159 LINE"
);
}
);
width = 249;
}
);
unicode = 0846;
script = mand;
category = Letter;
subCategory = Other;
},
{
glyphname = uni0846.Fina;
lastChange = "2020-03-30 20:46:49 +0000";
layers = (
{
anchors = (
{
name = bottom;
position = "{124, -189}";
}
);
layerId = UUID0;
paths = (
{
closed = 1;
nodes = (
"161 -159 LINE",
"161 37 LINE",
"182 15 OFFCURVE",
"217 0 OFFCURVE",
"271 0 CURVE",
"271 76 LINE",
"234 76 OFFCURVE",
"161 78 OFFCURVE",
"161 122 CURVE SMOOTH",
"161 694 LINE",
"88 694 LINE",
"88 -159 LINE"
);
}
);
width = 271;
}
);
script = mand;
category = Letter;
subCategory = Other;
},
{
glyphname = uni0847;
lastChange = "2020-03-30 20:46:49 +0000";
layers = (
{
anchors = (
{
name = bottom;
position = "{394, -49}";
}
);
layerId = UUID0;
paths = (
{
closed = 1;
nodes = (
"241 -5 OFFCURVE",
"460 -1 OFFCURVE",
"536 0 CURVE SMOOTH",
"644 2 OFFCURVE",
"711 26 OFFCURVE",
"711 104 CURVE SMOOTH",
"711 239 OFFCURVE",
"630 337 OFFCURVE",
"501 337 CURVE SMOOTH",
"400 337 OFFCURVE",
"220 277 OFFCURVE",
"128 207 CURVE SMOOTH",
"82 172 OFFCURVE",
"59 129 OFFCURVE",
"59 88 CURVE SMOOTH",
"59 12 OFFCURVE",
"120 -5 OFFCURVE",
"160 -5 CURVE SMOOTH"
);
},
{
closed = 1;
nodes = (
"147 71 OFFCURVE",
"133 83 OFFCURVE",
"133 103 CURVE SMOOTH",
"133 120 OFFCURVE",
"147 134 OFFCURVE",
"164 147 CURVE SMOOTH",
"230 198 OFFCURVE",
"421 264 OFFCURVE",
"490 264 CURVE SMOOTH",
"553 264 OFFCURVE",
"603 235 OFFCURVE",
"625 165 CURVE SMOOTH",
"629 152 OFFCURVE",
"633 137 OFFCURVE",
"633 121 CURVE SMOOTH",
"633 78 OFFCURVE",
"584 76 OFFCURVE",
"557 76 CURVE SMOOTH",
"437 74 OFFCURVE",
"208 71 OFFCURVE",
"175 71 CURVE SMOOTH"
);
}
);
width = 780;
}
);
unicode = 0847;
script = mand;
category = Letter;
subCategory = Other;
},
{
glyphname = uni0847.Fina;
lastChange = "2020-03-30 20:46:49 +0000";
layers = (
{
anchors = (
{
name = bottom;
position = "{394, -49}";
}
);
layerId = UUID0;
paths = (
{
closed = 1;
nodes = (
"241 -5 OFFCURVE",
"460 -1 OFFCURVE",
"525 0 CURVE SMOOTH",
"608 1 OFFCURVE",
"648 14 OFFCURVE",
"667 43 CURVE",
"689 16 OFFCURVE",
"717 0 OFFCURVE",
"783 0 CURVE SMOOTH",
"787 0 LINE",
"787 76 LINE",
"733 76 OFFCURVE",
"721 100 OFFCURVE",
"708 145 CURVE SMOOTH",
"671 274 OFFCURVE",
"611 337 OFFCURVE",
"501 337 CURVE SMOOTH",
"400 337 OFFCURVE",
"219 276 OFFCURVE",
"128 207 CURVE SMOOTH",
"82 172 OFFCURVE",
"59 129 OFFCURVE",
"59 88 CURVE SMOOTH",
"59 13 OFFCURVE",
"117 -5 OFFCURVE",
"158 -5 CURVE SMOOTH"
);
},
{
closed = 1;
nodes = (
"147 71 OFFCURVE",
"133 83 OFFCURVE",
"133 103 CURVE SMOOTH",
"133 119 OFFCURVE",
"146 134 OFFCURVE",
"161 145 CURVE SMOOTH",
"230 198 OFFCURVE",
"423 264 OFFCURVE",
"490 264 CURVE SMOOTH",
"551 264 OFFCURVE",
"590 239 OFFCURVE",
"615 182 CURVE SMOOTH",
"625 159 OFFCURVE",
"634 137 OFFCURVE",
"634 122 CURVE SMOOTH",
"634 79 OFFCURVE",
"564 77 OFFCURVE",
"538 76 CURVE SMOOTH",
"437 73 OFFCURVE",
"208 71 OFFCURVE",
"175 71 CURVE SMOOTH"
);
}
);
width = 787;
}
);
script = mand;
category = Letter;
subCategory = Other;
},
{
glyphname = uni0848;
lastChange = "2020-03-30 20:46:49 +0000";
layers = (
{
anchors = (
{
name = bottom;
position = "{272, -49}";
}
);
layerId = UUID0;
paths = (
{
closed = 1;
nodes = (
"601 0 LINE",
"601 76 LINE",
"485 76 LINE",
"598 381 LINE SMOOTH",
"626 458 OFFCURVE",
"651 533 OFFCURVE",
"651 589 CURVE SMOOTH",
"651 670 OFFCURVE",
"608 724 OFFCURVE",
"529 724 CURVE SMOOTH",
"449 724 OFFCURVE",
"399 663 OFFCURVE",
"370 589 CURVE SMOOTH",
"169 76 LINE",
"39 76 LINE",
"39 0 LINE"
);
},
{
closed = 1;
nodes = (
"439 562 LINE SMOOTH",
"459 612 OFFCURVE",
"484 651 OFFCURVE",
"524 651 CURVE SMOOTH",
"566 651 OFFCURVE",
"578 617 OFFCURVE",
"578 586 CURVE SMOOTH",
"578 537 OFFCURVE",
"546 452 OFFCURVE",
"526 399 CURVE SMOOTH",
"402 76 LINE",
"249 76 LINE"
);
}
);
width = 676;
}
);
unicode = 0848;
script = mand;
category = Letter;
subCategory = Other;
},
{
glyphname = uni0848.Fina;
lastChange = "2020-03-30 20:46:49 +0000";
layers = (
{
anchors = (
{
name = bottom;
position = "{272, -49}";
}
);
layerId = UUID0;
paths = (
{
closed = 1;
nodes = (
"696 0 LINE",
"696 76 LINE",
"495 76 LINE",
"607 381 LINE SMOOTH",
"636 459 OFFCURVE",
"661 533 OFFCURVE",
"661 589 CURVE SMOOTH",
"661 670 OFFCURVE",
"618 724 OFFCURVE",
"539 724 CURVE SMOOTH",
"458 724 OFFCURVE",
"408 663 OFFCURVE",
"379 589 CURVE SMOOTH",
"179 76 LINE",
"49 76 LINE",
"49 0 LINE"
);
},
{
closed = 1;
nodes = (
"449 562 LINE SMOOTH",
"469 612 OFFCURVE",
"494 651 OFFCURVE",
"534 651 CURVE SMOOTH",
"576 651 OFFCURVE",
"587 617 OFFCURVE",
"587 586 CURVE SMOOTH",
"587 537 OFFCURVE",
"556 452 OFFCURVE",
"536 399 CURVE SMOOTH",
"412 76 LINE",
"258 76 LINE"
);
}
);
width = 696;
}
);
script = mand;
category = Letter;
subCategory = Other;
},
{
glyphname = uni0848.Init;
lastChange = "2020-03-30 20:46:49 +0000";
layers = (
{
anchors = (
{
name = bottom;
position = "{173, -49}";
}
);
layerId = UUID0;
paths = (
{
closed = 1;
nodes = (
"500 0 LINE",
"500 76 LINE",
"385 76 LINE",
"498 381 LINE SMOOTH",
"526 458 OFFCURVE",
"551 533 OFFCURVE",
"551 589 CURVE SMOOTH",
"551 670 OFFCURVE",
"507 724 OFFCURVE",
"428 724 CURVE SMOOTH",
"348 724 OFFCURVE",
"299 663 OFFCURVE",
"270 589 CURVE SMOOTH",
"68 76 LINE",
"0 76 LINE SMOOTH",
"-22 76 OFFCURVE",
"-40 62 OFFCURVE",
"-40 38 CURVE SMOOTH",
"-40 14 OFFCURVE",
"-22 0 OFFCURVE",
"0 0 CURVE"
);
},
{
closed = 1;
nodes = (
"339 562 LINE SMOOTH",
"359 612 OFFCURVE",
"383 651 OFFCURVE",
"424 651 CURVE SMOOTH",
"466 651 OFFCURVE",
"477 617 OFFCURVE",
"477 586 CURVE SMOOTH",
"477 538 OFFCURVE",
"445 452 OFFCURVE",
"425 399 CURVE SMOOTH",
"302 76 LINE",
"148 76 LINE"
);
}
);
width = 576;
}
);
script = mand;
category = Letter;
subCategory = Other;
},
{
glyphname = uni0848.Medi;
lastChange = "2020-03-30 20:46:49 +0000";
layers = (
{
anchors = (
{
name = bottom;
position = "{173, -49}";
}
);
layerId = UUID0;
paths = (
{
closed = 1;
nodes = (
"586 0 LINE",
"586 76 LINE",
"385 76 LINE",
"498 381 LINE SMOOTH",
"526 458 OFFCURVE",
"551 533 OFFCURVE",
"551 589 CURVE SMOOTH",
"551 670 OFFCURVE",
"507 724 OFFCURVE",
"428 724 CURVE SMOOTH",
"348 724 OFFCURVE",
"299 664 OFFCURVE",
"270 589 CURVE SMOOTH",
"69 76 LINE",
"0 76 LINE SMOOTH",
"-22 76 OFFCURVE",
"-40 62 OFFCURVE",
"-40 38 CURVE SMOOTH",
"-40 14 OFFCURVE",
"-22 0 OFFCURVE",
"0 0 CURVE"
);
},
{
closed = 1;
nodes = (
"339 562 LINE SMOOTH",
"359 612 OFFCURVE",
"383 651 OFFCURVE",
"424 651 CURVE SMOOTH",
"466 651 OFFCURVE",
"477 617 OFFCURVE",
"477 586 CURVE SMOOTH",
"477 538 OFFCURVE",
"445 452 OFFCURVE",
"425 399 CURVE SMOOTH",
"302 76 LINE",
"148 76 LINE"
);
}
);
width = 586;
}
);
script = mand;
category = Letter;
subCategory = Other;
},
{
glyphname = uni0849;
lastChange = "2020-03-30 20:46:49 +0000";
layers = (
{
anchors = (
{
name = bottom;
position = "{229, -49}";
}
);
layerId = UUID0;
paths = (
{
closed = 1;
nodes = (
"394 0 LINE",
"394 76 LINE",
"130 76 LINE",
"143 125 OFFCURVE",
"238 240 OFFCURVE",
"300 295 CURVE",
"254 339 LINE",
"178 280 OFFCURVE",
"59 145 OFFCURVE",
"59 63 CURVE SMOOTH",
"59 17 OFFCURVE",
"83 0 OFFCURVE",
"125 0 CURVE SMOOTH"
);
}
);
width = 442;
}
);
unicode = 0849;
script = mand;
category = Letter;
subCategory = Other;
},
{
glyphname = uni0849.Fina;
lastChange = "2020-03-30 20:46:49 +0000";
layers = (
{
anchors = (
{
name = bottom;
position = "{229, -49}";
}
);
layerId = UUID0;
paths = (
{
closed = 1;
nodes = (
"410 0 LINE",
"410 76 LINE",
"130 76 LINE",
"144 125 OFFCURVE",
"239 240 OFFCURVE",
"301 295 CURVE",
"254 339 LINE",
"178 280 OFFCURVE",
"59 145 OFFCURVE",
"59 63 CURVE SMOOTH",
"59 17 OFFCURVE",
"83 0 OFFCURVE",
"125 0 CURVE SMOOTH"
);
}
);
width = 410;
}
);
script = mand;
category = Letter;
subCategory = Other;
},
{
glyphname = uni084A;
lastChange = "2020-03-30 20:46:49 +0000";
layers = (
{
anchors = (
{
name = bottom;
position = "{338, -380}";
}
);
layerId = UUID0;
paths = (
{
closed = 1;
nodes = (
"365 -361 LINE",
"448 -275 OFFCURVE",
"554 -140 OFFCURVE",
"606 -3 CURVE SMOOTH",
"610 9 OFFCURVE",
"612 21 OFFCURVE",
"612 30 CURVE SMOOTH",
"612 63 OFFCURVE",
"588 76 OFFCURVE",
"562 76 CURVE SMOOTH",
"391 76 LINE",
"396 115 OFFCURVE",
"465 220 OFFCURVE",
"557 292 CURVE",
"509 339 LINE",
"438 291 OFFCURVE",
"323 151 OFFCURVE",
"323 69 CURVE SMOOTH",
"323 19 OFFCURVE",
"355 0 OFFCURVE",
"397 0 CURVE SMOOTH",
"531 0 LINE",
"491 -94 OFFCURVE",
"393 -233 OFFCURVE",
"349 -281 CURVE",
"246 -89 OFFCURVE",
"184 70 OFFCURVE",
"137 247 CURVE",
"68 228 LINE",
"102 76 OFFCURVE",
"152 -45 OFFCURVE",
"209 -168 CURVE SMOOTH",
"235 -225 OFFCURVE",
"275 -299 OFFCURVE",
"313 -361 CURVE"
);
}
);
width = 671;
}
);
unicode = 084A;
script = mand;
category = Letter;
subCategory = Other;
},
{
glyphname = uni084A.Fina;
lastChange = "2020-03-30 20:46:49 +0000";
layers = (
{
anchors = (
{
name = bottom;
position = "{338, -380}";
}
);
layerId = UUID0;
paths = (
{
closed = 1;
nodes = (
"365 -361 LINE",
"448 -275 OFFCURVE",
"550 -138 OFFCURVE",
"597 0 CURVE",
"664 0 LINE",
"664 76 LINE",
"392 76 LINE",
"396 115 OFFCURVE",
"466 220 OFFCURVE",
"558 292 CURVE",
"510 339 LINE",
"439 291 OFFCURVE",
"324 151 OFFCURVE",
"324 69 CURVE SMOOTH",
"324 19 OFFCURVE",
"356 0 OFFCURVE",
"398 0 CURVE SMOOTH",
"521 0 LINE",
"486 -94 OFFCURVE",
"393 -233 OFFCURVE",
"349 -281 CURVE",
"246 -89 OFFCURVE",
"184 70 OFFCURVE",
"137 247 CURVE",
"68 228 LINE",
"102 76 OFFCURVE",
"152 -45 OFFCURVE",
"209 -168 CURVE SMOOTH",
"235 -225 OFFCURVE",
"275 -299 OFFCURVE",
"313 -361 CURVE"
);
}
);
width = 664;
}
);
script = mand;
category = Letter;
subCategory = Other;
},
{
glyphname = uni084A.Init;
lastChange = "2020-03-30 20:46:49 +0000";
layers = (
{
anchors = (
{
name = bottom;
position = "{288, -381}";
}
);
layerId = UUID0;
paths = (
{
closed = 1;
nodes = (
"314 -381 LINE",
"390 -292 OFFCURVE",
"505 -144 OFFCURVE",
"556 -3 CURVE SMOOTH",
"561 10 OFFCURVE",
"563 21 OFFCURVE",
"563 30 CURVE SMOOTH",
"563 63 OFFCURVE",
"539 76 OFFCURVE",
"512 76 CURVE SMOOTH",
"342 76 LINE",
"346 115 OFFCURVE",
"416 220 OFFCURVE",
"507 292 CURVE",
"459 339 LINE",
"389 291 OFFCURVE",
"273 151 OFFCURVE",
"273 69 CURVE SMOOTH",
"273 19 OFFCURVE",
"306 0 OFFCURVE",
"349 0 CURVE SMOOTH",
"481 0 LINE",
"441 -100 OFFCURVE",
"341 -247 OFFCURVE",
"297 -297 CURVE",
"253 -198 OFFCURVE",
"211 -102 OFFCURVE",
"182 -51 CURVE SMOOTH",
"128 42 OFFCURVE",
"67 76 OFFCURVE",
"0 76 CURVE SMOOTH",
"-21 76 OFFCURVE",
"-40 62 OFFCURVE",
"-40 38 CURVE SMOOTH",
"-40 14 OFFCURVE",
"-21 0 OFFCURVE",
"0 0 CURVE SMOOTH",
"40 0 OFFCURVE",
"62 -17 OFFCURVE",
"89 -51 CURVE SMOOTH",
"125 -96 OFFCURVE",
"160 -165 OFFCURVE",
"188 -229 CURVE SMOOTH",
"208 -274 OFFCURVE",
"234 -327 OFFCURVE",
"261 -381 CURVE"
);
}
);
width = 622;
}
);
script = mand;
category = Letter;
subCategory = Other;
},
{
glyphname = uni084A.Medi;
lastChange = "2020-03-30 20:46:49 +0000";
layers = (
{
anchors = (
{
name = bottom;
position = "{288, -381}";
}
);
layerId = UUID0;
paths = (
{
closed = 1;
nodes = (
"314 -381 LINE",
"392 -287 OFFCURVE",
"487 -171 OFFCURVE",
"547 0 CURVE",
"613 0 LINE",
"613 76 LINE",
"341 76 LINE",
"346 115 OFFCURVE",
"416 220 OFFCURVE",
"507 292 CURVE",
"459 339 LINE",
"388 291 OFFCURVE",
"273 151 OFFCURVE",
"273 69 CURVE SMOOTH",
"273 19 OFFCURVE",
"306 0 OFFCURVE",
"348 0 CURVE SMOOTH",
"472 0 LINE",
"436 -104 OFFCURVE",
"341 -246 OFFCURVE",
"297 -297 CURVE",
"253 -196 OFFCURVE",
"211 -99 OFFCURVE",
"182 -48 CURVE SMOOTH",
"128 46 OFFCURVE",
"67 76 OFFCURVE",
"0 76 CURVE SMOOTH",
"-22 76 OFFCURVE",
"-40 62 OFFCURVE",
"-40 38 CURVE SMOOTH",
"-40 14 OFFCURVE",
"-22 0 OFFCURVE",
"0 0 CURVE SMOOTH",
"40 0 OFFCURVE",
"62 -14 OFFCURVE",
"89 -48 CURVE SMOOTH",
"125 -94 OFFCURVE",
"160 -164 OFFCURVE",
"188 -227 CURVE SMOOTH",
"209 -273 OFFCURVE",
"234 -327 OFFCURVE",
"261 -381 CURVE"
);
}
);
width = 613;
}
);
script = mand;
category = Letter;
subCategory = Other;
},
{
glyphname = uni084B;
lastChange = "2020-03-30 20:46:49 +0000";
layers = (
{
anchors = (
{
name = bottom;
position = "{205, -49}";
}
);
layerId = UUID0;
paths = (
{
closed = 1;
nodes = (
"362 0 LINE",
"362 694 LINE",
"289 694 LINE",
"289 76 LINE",
"49 76 LINE",
"49 0 LINE"
);
}
);
width = 460;
}
);
unicode = 084B;
script = mand;
category = Letter;
subCategory = Other;
},
{
glyphname = uni084B.Fina;
lastChange = "2020-03-30 20:46:49 +0000";
layers = (
{
anchors = (
{
name = bottom;
position = "{205, -49}";
}
);
layerId = UUID0;
paths = (
{
closed = 1;
nodes = (
"471 0 LINE",
"471 76 LINE",
"362 76 LINE",
"362 694 LINE",
"289 694 LINE",
"289 76 LINE",
"49 76 LINE",
"49 0 LINE"
);
}
);
width = 471;
}
);
script = mand;
category = Letter;
subCategory = Other;
},
{
glyphname = uni084B.Init;
lastChange = "2020-03-30 20:46:49 +0000";
layers = (
{
anchors = (
{
name = bottom;
position = "{84, -49}";
}
);
layerId = UUID0;
paths = (
{
closed = 1;
nodes = (
"187 0 LINE",
"187 694 LINE",
"114 694 LINE",
"114 76 LINE",
"0 76 LINE SMOOTH",
"-22 76 OFFCURVE",
"-40 62 OFFCURVE",
"-40 38 CURVE SMOOTH",
"-40 14 OFFCURVE",
"-22 0 OFFCURVE",
"0 0 CURVE SMOOTH"
);
}
);
width = 285;
}
);
script = mand;
category = Letter;
subCategory = Other;
},
{
glyphname = uni084B.Medi;
lastChange = "2020-03-30 20:46:49 +0000";
layers = (
{
anchors = (
{
name = bottom;
position = "{74, -49}";
}
);
layerId = UUID0;
paths = (
{
closed = 1;
nodes = (
"296 0 LINE",
"296 76 LINE",
"188 76 LINE",
"188 694 LINE",
"114 694 LINE",
"114 76 LINE",
"0 76 LINE SMOOTH",
"-22 76 OFFCURVE",
"-40 62 OFFCURVE",
"-40 38 CURVE SMOOTH",
"-40 14 OFFCURVE",
"-22 0 OFFCURVE",
"0 0 CURVE SMOOTH"
);
}
);
width = 296;
}
);
script = mand;
category = Letter;
subCategory = Other;
},
{
glyphname = uni084C;
lastChange = "2020-03-30 20:46:49 +0000";
layers = (
{
anchors = (
{
name = bottom;
position = "{320, -49}";
}
);
layerId = UUID0;
paths = (
{
closed = 1;
nodes = (
"908 -159 LINE",
"908 493 LINE",
"834 493 LINE",
"834 311 LINE",
"312 311 LINE",
"350 331 OFFCURVE",
"406 369 OFFCURVE",
"420 381 CURVE SMOOTH",
"505 452 LINE",
"458 498 LINE",
"272 347 LINE SMOOTH",
"248 327 OFFCURVE",
"215 301 OFFCURVE",
"197 292 CURVE",
"197 237 LINE",
"498 237 LINE SMOOTH",
"559 237 OFFCURVE",
"583 201 OFFCURVE",
"583 157 CURVE SMOOTH",
"583 112 OFFCURVE",
"558 76 OFFCURVE",
"494 76 CURVE SMOOTH",
"49 76 LINE",
"49 0 LINE",
"494 0 LINE SMOOTH",
"587 0 OFFCURVE",
"657 48 OFFCURVE",
"657 157 CURVE SMOOTH",
"657 188 OFFCURVE",
"647 216 OFFCURVE",
"631 237 CURVE",
"834 237 LINE",
"834 -159 LINE"
);
}
);
width = 991;
}
);
unicode = 084C;
script = mand;
category = Letter;
subCategory = Other;
},
{
glyphname = uni084C.Fina;
lastChange = "2020-03-30 20:46:49 +0000";
layers = (
{
anchors = (
{
name = bottom;
position = "{320, -49}";
}
);
layerId = UUID0;
paths = (
{
closed = 1;
nodes = (
"494 0 LINE SMOOTH",
"587 0 OFFCURVE",
"657 48 OFFCURVE",
"657 157 CURVE SMOOTH",
"657 188 OFFCURVE",
"647 216 OFFCURVE",
"631 237 CURVE",
"834 237 LINE",
"834 179 LINE SMOOTH",
"834 47 OFFCURVE",
"892 0 OFFCURVE",
"984 0 CURVE SMOOTH",
"1012 0 LINE",
"1012 76 LINE",
"991 76 LINE SMOOTH",
"946 76 OFFCURVE",
"908 82 OFFCURVE",
"908 186 CURVE SMOOTH",
"908 493 LINE",
"834 493 LINE",
"834 311 LINE",
"312 311 LINE",
"351 331 OFFCURVE",
"405 369 OFFCURVE",
"420 381 CURVE SMOOTH",
"504 452 LINE",
"457 498 LINE",
"272 347 LINE SMOOTH",
"248 327 OFFCURVE",
"214 301 OFFCURVE",
"196 292 CURVE",
"196 237 LINE",
"498 237 LINE SMOOTH",
"559 237 OFFCURVE",
"583 201 OFFCURVE",
"583 157 CURVE SMOOTH",
"583 112 OFFCURVE",
"558 76 OFFCURVE",
"494 76 CURVE SMOOTH",
"49 76 LINE",
"49 0 LINE"
);
}
);
width = 1012;
}
);
script = mand;
category = Letter;
subCategory = Other;
},
{
glyphname = uni084C.Init;
lastChange = "2020-03-30 20:46:49 +0000";
layers = (
{
anchors = (
{
name = bottom;
position = "{204, -49}";
}
);
layerId = UUID0;
paths = (
{
closed = 1;
nodes = (
"792 -159 LINE",
"792 493 LINE",
"719 493 LINE",
"719 311 LINE",
"196 311 LINE",
"234 331 OFFCURVE",
"289 369 OFFCURVE",
"304 381 CURVE SMOOTH",
"388 452 LINE",
"341 498 LINE",
"156 347 LINE SMOOTH",
"132 327 OFFCURVE",
"97 301 OFFCURVE",
"81 292 CURVE",
"81 237 LINE",
"382 237 LINE SMOOTH",
"444 237 OFFCURVE",
"467 201 OFFCURVE",
"467 157 CURVE SMOOTH",
"467 112 OFFCURVE",
"443 76 OFFCURVE",
"378 76 CURVE SMOOTH",
"0 76 LINE SMOOTH",
"-21 76 OFFCURVE",
"-40 62 OFFCURVE",
"-40 38 CURVE SMOOTH",
"-40 14 OFFCURVE",
"-21 0 OFFCURVE",
"0 0 CURVE SMOOTH",
"378 0 LINE SMOOTH",
"471 0 OFFCURVE",
"542 48 OFFCURVE",
"542 157 CURVE SMOOTH",
"542 188 OFFCURVE",
"532 216 OFFCURVE",
"515 237 CURVE",
"719 237 LINE",
"719 -159 LINE"
);
}
);
width = 875;
}
);
script = mand;
category = Letter;
subCategory = Other;
},
{
glyphname = uni084C.Medi;
lastChange = "2020-03-30 20:46:49 +0000";
layers = (
{
anchors = (
{
name = bottom;
position = "{204, -49}";
}
);
layerId = UUID0;
paths = (
{
closed = 1;
nodes = (
"378 0 LINE SMOOTH",
"471 0 OFFCURVE",
"542 48 OFFCURVE",
"542 157 CURVE SMOOTH",
"542 188 OFFCURVE",
"532 216 OFFCURVE",
"515 237 CURVE",
"719 237 LINE",
"719 179 LINE SMOOTH",
"719 47 OFFCURVE",
"771 0 OFFCURVE",
"862 0 CURVE SMOOTH",
"896 0 LINE",
"896 76 LINE",
"875 76 LINE SMOOTH",
"830 76 OFFCURVE",
"792 82 OFFCURVE",
"792 186 CURVE SMOOTH",
"792 493 LINE",
"719 493 LINE",
"719 311 LINE",
"196 311 LINE",
"234 331 OFFCURVE",
"289 368 OFFCURVE",
"304 381 CURVE SMOOTH",
"388 452 LINE",
"341 498 LINE",
"156 347 LINE SMOOTH",
"132 327 OFFCURVE",
"97 301 OFFCURVE",
"81 292 CURVE",
"81 237 LINE",
"382 237 LINE SMOOTH",
"444 237 OFFCURVE",
"468 201 OFFCURVE",
"468 157 CURVE SMOOTH",
"468 112 OFFCURVE",
"443 76 OFFCURVE",
"378 76 CURVE SMOOTH",
"0 76 LINE SMOOTH",
"-22 76 OFFCURVE",
"-40 62 OFFCURVE",
"-40 38 CURVE SMOOTH",
"-40 14 OFFCURVE",
"-22 0 OFFCURVE",
"0 0 CURVE SMOOTH"
);
}
);
width = 896;
}
);
script = mand;
category = Letter;
subCategory = Other;
},
{
glyphname = uni084D;
lastChange = "2020-03-30 20:46:49 +0000";
layers = (
{
anchors = (
{
name = bottom;
position = "{276, -380}";
}
);
layerId = UUID0;
paths = (
{
closed = 1;
nodes = (
"303 -361 LINE",
"402 -231 OFFCURVE",
"519 26 OFFCURVE",
"519 172 CURVE SMOOTH",
"519 184 OFFCURVE",
"518 223 OFFCURVE",
"513 247 CURVE",
"444 237 LINE",
"446 210 OFFCURVE",
"447 184 OFFCURVE",
"447 157 CURVE",
"442 44 OFFCURVE",
"347 -167 OFFCURVE",
"288 -266 CURVE",
"193 -41 OFFCURVE",
"174 63 OFFCURVE",
"138 247 CURVE",
"68 234 LINE",
"95 38 OFFCURVE",
"162 -179 OFFCURVE",
"251 -361 CURVE"
);
}
);
width = 587;
}
);
unicode = 084D;
script = mand;
category = Letter;
subCategory = Other;
},
{
glyphname = uni084D.Fina;
lastChange = "2020-03-30 20:46:49 +0000";
layers = (
{
anchors = (
{
name = bottom;
position = "{276, -380}";
}
);
layerId = UUID0;
paths = (
{
closed = 1;
nodes = (
"303 -361 LINE",
"373 -273 OFFCURVE",
"438 -142 OFFCURVE",
"479 -10 CURVE SMOOTH",
"484 7 OFFCURVE",
"490 23 OFFCURVE",
"494 39 CURVE",
"512 17 OFFCURVE",
"542 1 OFFCURVE",
"596 0 CURVE",
"596 76 LINE",
"549 76 OFFCURVE",
"516 94 OFFCURVE",
"509 133 CURVE",
"509 164 OFFCURVE",
"508 182 OFFCURVE",
"503 202 CURVE",
"437 192 LINE",
"438 176 OFFCURVE",
"438 146 OFFCURVE",
"438 138 CURVE",
"430 19 OFFCURVE",
"346 -177 OFFCURVE",
"287 -271 CURVE",
"213 -88 OFFCURVE",
"170 63 OFFCURVE",
"138 247 CURVE",
"68 234 LINE",
"96 17 OFFCURVE",
"176 -220 OFFCURVE",
"251 -361 CURVE"
);
}
);
width = 596;
}
);
script = mand;
category = Letter;
subCategory = Other;
},
{
glyphname = uni084D.Init;
lastChange = "2020-03-30 20:46:49 +0000";
layers = (
{
anchors = (
{
name = bottom;
position = "{222, -380}";
}
);
layerId = UUID0;
paths = (
{
closed = 1;
nodes = (
"247 -368 LINE",
"314 -272 OFFCURVE",
"389 -143 OFFCURVE",
"438 10 CURVE SMOOTH",
"456 67 OFFCURVE",
"467 125 OFFCURVE",
"467 172 CURVE SMOOTH",
"467 184 OFFCURVE",
"466 233 OFFCURVE",
"461 247 CURVE",
"392 237 LINE",
"394 221 OFFCURVE",
"396 186 OFFCURVE",
"396 157 CURVE",
"388 38 OFFCURVE",
"296 -166 OFFCURVE",
"236 -266 CURVE",
"202 -153 OFFCURVE",
"188 -108 OFFCURVE",
"167 -52 CURVE SMOOTH",
"129 51 OFFCURVE",
"74 76 OFFCURVE",
"0 76 CURVE SMOOTH",
"-22 76 OFFCURVE",
"-40 62 OFFCURVE",
"-40 38 CURVE SMOOTH",
"-40 14 OFFCURVE",
"-22 0 OFFCURVE",
"0 0 CURVE SMOOTH",
"32 0 OFFCURVE",
"55 -3 OFFCURVE",
"79 -39 CURVE SMOOTH",
"91 -57 OFFCURVE",
"107 -100 OFFCURVE",
"129 -166 CURVE SMOOTH",
"146 -218 OFFCURVE",
"169 -283 OFFCURVE",
"197 -368 CURVE"
);
}
);
width = 534;
}
);
script = mand;
category = Letter;
subCategory = Other;
},
{
glyphname = uni084D.Medi;
lastChange = "2020-03-30 20:46:49 +0000";
layers = (
{
anchors = (
{
name = bottom;
position = "{225, -381}";
}
);
layerId = UUID0;
paths = (
{
closed = 1;
nodes = (
"250 -381 LINE",
"318 -285 OFFCURVE",
"398 -140 OFFCURVE",
"441 -10 CURVE SMOOTH",
"446 6 OFFCURVE",
"452 22 OFFCURVE",
"456 38 CURVE",
"475 16 OFFCURVE",
"504 1 OFFCURVE",
"558 0 CURVE",
"558 76 LINE",
"511 76 OFFCURVE",
"478 94 OFFCURVE",
"470 131 CURVE",
"471 135 OFFCURVE",
"471 139 OFFCURVE",
"471 143 CURVE SMOOTH",
"471 155 OFFCURVE",
"470 188 OFFCURVE",
"465 202 CURVE",
"396 192 LINE",
"398 176 OFFCURVE",
"399 146 OFFCURVE",
"399 138 CURVE",
"392 18 OFFCURVE",
"300 -178 OFFCURVE",
"240 -279 CURVE",
"206 -166 OFFCURVE",
"188 -108 OFFCURVE",
"167 -52 CURVE SMOOTH",
"129 51 OFFCURVE",
"74 76 OFFCURVE",
"0 76 CURVE SMOOTH",
"-22 76 OFFCURVE",
"-40 62 OFFCURVE",
"-40 38 CURVE SMOOTH",
"-40 14 OFFCURVE",
"-22 0 OFFCURVE",
"0 0 CURVE SMOOTH",
"32 0 OFFCURVE",
"55 -3 OFFCURVE",
"79 -39 CURVE SMOOTH",
"91 -57 OFFCURVE",
"107 -100 OFFCURVE",
"129 -166 CURVE SMOOTH",
"146 -218 OFFCURVE",
"173 -296 OFFCURVE",
"201 -381 CURVE"
);
}
);
width = 558;
}
);
script = mand;
category = Letter;
subCategory = Other;
},
{
glyphname = uni084E;
lastChange = "2020-03-30 20:46:49 +0000";
layers = (
{
anchors = (
{
name = bottom;
position = "{423, -49}";
}
);
layerId = UUID0;
paths = (
{
closed = 1;
nodes = (
"171 0 LINE SMOOTH",
"251 0 OFFCURVE",
"310 24 OFFCURVE",
"337 61 CURVE",
"374 20 OFFCURVE",
"422 0 OFFCURVE",
"513 0 CURVE SMOOTH",
"749 0 LINE SMOOTH",
"867 0 OFFCURVE",
"924 33 OFFCURVE",
"924 122 CURVE SMOOTH",
"924 228 OFFCURVE",
"859 327 OFFCURVE",
"727 327 CURVE SMOOTH",
"599 327 OFFCURVE",
"509 233 OFFCURVE",
"438 85 CURVE",
"412 93 OFFCURVE",
"384 106 OFFCURVE",
"376 135 CURVE",
"378 148 OFFCURVE",
"379 161 OFFCURVE",
"379 174 CURVE SMOOTH",
"379 181 OFFCURVE",
"379 189 OFFCURVE",
"378 196 CURVE",
"311 188 LINE",
"309 121 OFFCURVE",
"281 76 OFFCURVE",
"180 76 CURVE SMOOTH",
"49 76 LINE",
"49 0 LINE"
);
},
{
closed = 1;
nodes = (
"562 177 OFFCURVE",
"643 253 OFFCURVE",
"729 253 CURVE SMOOTH",
"787 253 OFFCURVE",
"851 217 OFFCURVE",
"851 124 CURVE SMOOTH",
"851 82 OFFCURVE",
"805 76 OFFCURVE",
"777 76 CURVE SMOOTH",
"515 76 LINE"
);
}
);
width = 993;
}
);
unicode = 084E;
script = mand;
category = Letter;
subCategory = Other;
},
{
glyphname = uni084E.Fina;
lastChange = "2020-03-30 20:46:49 +0000";
layers = (
{
anchors = (
{
name = bottom;
position = "{423, -49}";
}
);
layerId = UUID0;
paths = (
{
closed = 1;
nodes = (
"171 0 LINE SMOOTH",
"251 0 OFFCURVE",
"310 24 OFFCURVE",
"337 61 CURVE",
"374 20 OFFCURVE",
"422 0 OFFCURVE",
"513 0 CURVE SMOOTH",
"749 0 LINE SMOOTH",
"799 0 OFFCURVE",
"835 18 OFFCURVE",
"863 31 CURVE SMOOTH",
"901 49 OFFCURVE",
"924 76 OFFCURVE",
"924 127 CURVE SMOOTH",
"924 228 OFFCURVE",
"859 327 OFFCURVE",
"727 327 CURVE SMOOTH",
"599 327 OFFCURVE",
"509 233 OFFCURVE",
"438 85 CURVE",
"412 93 OFFCURVE",
"384 106 OFFCURVE",
"376 135 CURVE",
"378 148 OFFCURVE",
"379 161 OFFCURVE",
"379 174 CURVE SMOOTH",
"379 181 OFFCURVE",
"379 189 OFFCURVE",
"378 196 CURVE",
"311 188 LINE",
"309 121 OFFCURVE",
"281 76 OFFCURVE",
"180 76 CURVE SMOOTH",
"49 76 LINE",
"49 0 LINE"
);
},
{
closed = 1;
nodes = (
"562 177 OFFCURVE",
"643 253 OFFCURVE",
"729 253 CURVE SMOOTH",
"787 253 OFFCURVE",
"851 217 OFFCURVE",
"851 124 CURVE SMOOTH",
"851 82 OFFCURVE",
"817 76 OFFCURVE",
"790 76 CURVE SMOOTH",
"515 76 LINE"
);
},
{
closed = 1;
nodes = (
"1002 0 LINE",
"1002 76 LINE",
"831 76 LINE",
"741 61 LINE",
"741 0 LINE"
);
}
);
width = 1002;
}
);
script = mand;
category = Letter;
subCategory = Other;
},
{
glyphname = uni084E.Init;
lastChange = "2020-03-30 20:46:49 +0000";
layers = (
{
anchors = (
{
name = bottom;
position = "{212, -49}";
}
);
layerId = UUID0;
paths = (
{
closed = 1;
nodes = (
"2 0 LINE SMOOTH",
"58 0 OFFCURVE",
"100 24 OFFCURVE",
"127 61 CURVE",
"163 20 OFFCURVE",
"212 0 OFFCURVE",
"302 0 CURVE SMOOTH",
"539 0 LINE SMOOTH",
"656 0 OFFCURVE",
"714 33 OFFCURVE",
"714 122 CURVE SMOOTH",
"714 228 OFFCURVE",
"649 327 OFFCURVE",
"517 327 CURVE SMOOTH",
"388 327 OFFCURVE",
"299 233 OFFCURVE",
"228 85 CURVE",
"201 93 OFFCURVE",
"173 106 OFFCURVE",
"166 135 CURVE",
"168 148 OFFCURVE",
"169 161 OFFCURVE",
"169 174 CURVE SMOOTH",
"169 181 OFFCURVE",
"169 189 OFFCURVE",
"168 196 CURVE",
"98 188 LINE",
"98 131 OFFCURVE",
"77 76 OFFCURVE",
"5 76 CURVE SMOOTH",
"0 76 LINE SMOOTH",
"-22 76 OFFCURVE",
"-40 62 OFFCURVE",
"-40 38 CURVE SMOOTH",
"-40 14 OFFCURVE",
"-22 0 OFFCURVE",
"0 0 CURVE SMOOTH"
);
},
{
closed = 1;
nodes = (
"351 177 OFFCURVE",
"432 253 OFFCURVE",
"518 253 CURVE SMOOTH",
"576 253 OFFCURVE",
"641 217 OFFCURVE",
"641 124 CURVE SMOOTH",
"641 82 OFFCURVE",
"594 76 OFFCURVE",
"566 76 CURVE SMOOTH",
"304 76 LINE"
);
}
);
width = 782;
}
);
script = mand;
category = Letter;
subCategory = Other;
},
{
glyphname = uni084E.Medi;
lastChange = "2020-03-30 20:46:49 +0000";
layers = (
{
anchors = (
{
name = bottom;
position = "{212, -49}";
}
);
layerId = UUID0;
paths = (
{
closed = 1;
nodes = (
"2 0 LINE SMOOTH",
"58 0 OFFCURVE",
"100 24 OFFCURVE",
"127 61 CURVE",
"163 20 OFFCURVE",
"212 0 OFFCURVE",
"302 0 CURVE SMOOTH",
"539 0 LINE SMOOTH",
"588 0 OFFCURVE",
"623 17 OFFCURVE",
"652 31 CURVE SMOOTH",
"692 50 OFFCURVE",
"714 76 OFFCURVE",
"714 127 CURVE SMOOTH",
"714 228 OFFCURVE",
"649 327 OFFCURVE",
"517 327 CURVE SMOOTH",
"388 327 OFFCURVE",
"299 233 OFFCURVE",
"228 85 CURVE",
"201 93 OFFCURVE",
"173 106 OFFCURVE",
"166 135 CURVE",
"168 148 OFFCURVE",
"169 161 OFFCURVE",
"169 174 CURVE SMOOTH",
"169 181 OFFCURVE",
"169 189 OFFCURVE",
"168 196 CURVE",
"98 188 LINE",
"98 131 OFFCURVE",
"77 76 OFFCURVE",
"5 76 CURVE SMOOTH",
"0 76 LINE SMOOTH",
"-22 76 OFFCURVE",
"-40 62 OFFCURVE",
"-40 38 CURVE SMOOTH",
"-40 14 OFFCURVE",
"-22 0 OFFCURVE",
"0 0 CURVE SMOOTH"
);
},
{
closed = 1;
nodes = (
"351 177 OFFCURVE",
"432 253 OFFCURVE",
"518 253 CURVE SMOOTH",
"576 253 OFFCURVE",
"641 217 OFFCURVE",
"641 124 CURVE SMOOTH",
"641 82 OFFCURVE",
"607 76 OFFCURVE",
"579 76 CURVE SMOOTH",
"304 76 LINE"
);
},
{
closed = 1;
nodes = (
"792 0 LINE",
"792 76 LINE",
"620 76 LINE",
"530 61 LINE",
"530 0 LINE"
);
}
);
width = 792;
}
);
script = mand;
category = Letter;
subCategory = Other;
},
{
glyphname = uni084F;
lastChange = "2020-03-30 20:46:49 +0000";
layers = (
{
anchors = (
{
name = bottom;
position = "{397, -49}";
}
);
layerId = UUID0;
paths = (
{
closed = 1;
nodes = (
"612 0 LINE SMOOTH",
"705 0 OFFCURVE",
"775 48 OFFCURVE",
"775 157 CURVE SMOOTH",
"775 266 OFFCURVE",
"705 311 OFFCURVE",
"612 311 CURVE SMOOTH",
"326 311 LINE",
"363 329 OFFCURVE",
"409 357 OFFCURVE",
"424 368 CURVE SMOOTH",
"536 449 LINE",
"491 498 LINE",
"418 446 OFFCURVE",
"348 394 OFFCURVE",
"275 342 CURVE SMOOTH",
"250 324 OFFCURVE",
"217 302 OFFCURVE",
"196 292 CURVE",
"196 237 LINE",
"612 237 LINE SMOOTH",
"676 237 OFFCURVE",
"702 202 OFFCURVE",
"702 157 CURVE SMOOTH",
"702 112 OFFCURVE",
"676 76 OFFCURVE",
"612 76 CURVE SMOOTH",
"49 76 LINE",
"49 0 LINE"
);
}
);
width = 854;
}
);
unicode = 084F;
script = mand;
category = Letter;
subCategory = Other;
},
{
glyphname = uni084F.Fina;
lastChange = "2020-03-30 20:46:49 +0000";
layers = (
{
anchors = (
{
name = bottom;
position = "{397, -49}";
}
);
layerId = UUID0;
paths = (
{
closed = 1;
nodes = (
"854 0 LINE",
"854 76 LINE",
"754 76 LINE",
"768 99 OFFCURVE",
"775 126 OFFCURVE",
"775 157 CURVE SMOOTH",
"775 266 OFFCURVE",
"705 311 OFFCURVE",
"612 311 CURVE SMOOTH",
"326 311 LINE",
"363 329 OFFCURVE",
"409 357 OFFCURVE",
"424 368 CURVE SMOOTH",
"536 449 LINE",
"491 498 LINE",
"275 342 LINE SMOOTH",
"250 324 OFFCURVE",
"217 302 OFFCURVE",
"196 292 CURVE",
"196 237 LINE",
"612 237 LINE SMOOTH",
"676 237 OFFCURVE",
"702 201 OFFCURVE",
"702 156 CURVE SMOOTH",
"702 111 OFFCURVE",
"676 76 OFFCURVE",
"612 76 CURVE SMOOTH",
"49 76 LINE",
"49 0 LINE"
);
}
);
width = 854;
}
);
script = mand;
category = Letter;
subCategory = Other;
},
{
glyphname = uni084F.Init;
lastChange = "2020-03-30 20:46:49 +0000";
layers = (
{
anchors = (
{
name = bottom;
position = "{282, -49}";
}
);
layerId = UUID0;
paths = (
{
closed = 1;
nodes = (
"497 0 LINE SMOOTH",
"589 0 OFFCURVE",
"660 48 OFFCURVE",
"660 157 CURVE SMOOTH",
"660 266 OFFCURVE",
"589 311 OFFCURVE",
"497 311 CURVE SMOOTH",
"211 311 LINE",
"248 329 OFFCURVE",
"293 357 OFFCURVE",
"309 368 CURVE SMOOTH",
"421 449 LINE",
"375 498 LINE",
"160 342 LINE SMOOTH",
"135 324 OFFCURVE",
"102 302 OFFCURVE",
"81 292 CURVE",
"81 237 LINE",
"497 237 LINE SMOOTH",
"561 237 OFFCURVE",
"587 201 OFFCURVE",
"587 156 CURVE SMOOTH",
"587 111 OFFCURVE",
"561 76 OFFCURVE",
"497 76 CURVE SMOOTH",
"0 76 LINE SMOOTH",
"-22 76 OFFCURVE",
"-40 62 OFFCURVE",
"-40 38 CURVE SMOOTH",
"-40 14 OFFCURVE",
"-22 0 OFFCURVE",
"0 0 CURVE SMOOTH"
);
}
);
width = 738;
}
);
script = mand;
category = Letter;
subCategory = Other;
},
{
glyphname = uni084F.Medi;
lastChange = "2020-03-30 20:46:49 +0000";
layers = (
{
anchors = (
{
name = bottom;
position = "{282, -49}";
}
);
layerId = UUID0;
paths = (
{
closed = 1;
nodes = (
"739 0 LINE",
"739 76 LINE",
"639 76 LINE",
"652 99 OFFCURVE",
"660 126 OFFCURVE",
"660 157 CURVE SMOOTH",
"660 266 OFFCURVE",
"589 311 OFFCURVE",
"497 311 CURVE SMOOTH",
"211 311 LINE",
"248 329 OFFCURVE",
"293 357 OFFCURVE",
"309 368 CURVE SMOOTH",
"421 449 LINE",
"375 498 LINE",
"160 342 LINE SMOOTH",
"135 324 OFFCURVE",
"102 302 OFFCURVE",
"81 292 CURVE",
"81 237 LINE",
"497 237 LINE SMOOTH",
"561 237 OFFCURVE",
"587 201 OFFCURVE",
"587 156 CURVE SMOOTH",
"587 111 OFFCURVE",
"561 76 OFFCURVE",
"497 76 CURVE SMOOTH",
"0 76 LINE SMOOTH",
"-22 76 OFFCURVE",
"-40 62 OFFCURVE",
"-40 38 CURVE SMOOTH",
"-40 14 OFFCURVE",
"-22 0 OFFCURVE",
"0 0 CURVE SMOOTH"
);
}
);
width = 739;
}
);
script = mand;
category = Letter;
subCategory = Other;
},
{
glyphname = uni0850;
lastChange = "2020-03-30 20:46:49 +0000";
layers = (
{
anchors = (
{
name = bottom;
position = "{352, -381}";
}
);
layerId = UUID0;
paths = (
{
closed = 1;
nodes = (
"378 -381 LINE",
"454 -292 OFFCURVE",
"546 -186 OFFCURVE",
"613 -16 CURVE SMOOTH",
"640 52 OFFCURVE",
"651 107 OFFCURVE",
"651 167 CURVE SMOOTH",
"651 248 OFFCURVE",
"597 330 OFFCURVE",
"488 330 CURVE SMOOTH",
"377 330 OFFCURVE",
"316 223 OFFCURVE",
"316 143 CURVE SMOOTH",
"316 64 OFFCURVE",
"356 0 OFFCURVE",
"476 0 CURVE SMOOTH",
"542 0 LINE",
"497 -123 OFFCURVE",
"404 -243 OFFCURVE",
"359 -296 CURVE",
"231 -53 OFFCURVE",
"189 70 OFFCURVE",
"137 247 CURVE",
"68 227 LINE",
"100 96 OFFCURVE",
"160 -65 OFFCURVE",
"221 -186 CURVE SMOOTH",
"249 -241 OFFCURVE",
"288 -313 OFFCURVE",
"327 -381 CURVE"
);
},
{
closed = 1;
nodes = (
"398 76 OFFCURVE",
"385 119 OFFCURVE",
"385 154 CURVE SMOOTH",
"385 197 OFFCURVE",
"424 258 OFFCURVE",
"486 258 CURVE SMOOTH",
"536 258 OFFCURVE",
"580 224 OFFCURVE",
"580 157 CURVE SMOOTH",
"580 136 OFFCURVE",
"577 101 OFFCURVE",
"568 76 CURVE",
"478 76 LINE SMOOTH"
);
}
);
width = 720;
}
);
unicode = 0850;
script = mand;
category = Letter;
subCategory = Other;
},
{
glyphname = uni0850.Fina;
lastChange = "2020-03-30 20:46:49 +0000";
layers = (
{
anchors = (
{
name = bottom;
position = "{352, -381}";
}
);
layerId = UUID0;
paths = (
{
closed = 1;
nodes = (
"378 -381 LINE",
"460 -282 OFFCURVE",
"551 -174 OFFCURVE",
"619 0 CURVE",
"726 0 LINE",
"726 76 LINE",
"639 76 LINE",
"647 104 OFFCURVE",
"649 138 OFFCURVE",
"649 167 CURVE SMOOTH",
"649 248 OFFCURVE",
"596 330 OFFCURVE",
"486 330 CURVE SMOOTH",
"375 330 OFFCURVE",
"314 223 OFFCURVE",
"314 143 CURVE SMOOTH",
"314 64 OFFCURVE",
"354 0 OFFCURVE",
"474 0 CURVE SMOOTH",
"542 0 LINE",
"493 -123 OFFCURVE",
"404 -243 OFFCURVE",
"359 -296 CURVE",
"231 -53 OFFCURVE",
"189 70 OFFCURVE",
"137 247 CURVE",
"68 227 LINE",
"100 96 OFFCURVE",
"160 -65 OFFCURVE",
"221 -186 CURVE SMOOTH",
"249 -241 OFFCURVE",
"288 -313 OFFCURVE",
"327 -381 CURVE"
);
},
{
closed = 1;
nodes = (
"396 76 OFFCURVE",
"383 118 OFFCURVE",
"383 153 CURVE SMOOTH",
"383 197 OFFCURVE",
"422 258 OFFCURVE",
"484 258 CURVE SMOOTH",
"534 258 OFFCURVE",
"578 224 OFFCURVE",
"578 157 CURVE SMOOTH",
"578 136 OFFCURVE",
"575 101 OFFCURVE",
"566 76 CURVE",
"476 76 LINE SMOOTH"
);
}
);
width = 726;
}
);
script = mand;
category = Letter;
subCategory = Other;
},
{
glyphname = uni0850.Init;
lastChange = "2020-03-30 20:46:49 +0000";
layers = (
{
anchors = (
{
name = bottom;
position = "{285, -381}";
}
);
layerId = UUID0;
paths = (
{
closed = 1;
nodes = (
"312 -381 LINE",
"379 -301 OFFCURVE",
"474 -189 OFFCURVE",
"538 -16 CURVE SMOOTH",
"563 52 OFFCURVE",
"575 107 OFFCURVE",
"575 167 CURVE SMOOTH",
"575 248 OFFCURVE",
"521 331 OFFCURVE",
"411 331 CURVE SMOOTH",
"300 331 OFFCURVE",
"239 223 OFFCURVE",
"239 143 CURVE SMOOTH",
"239 64 OFFCURVE",
"281 0 OFFCURVE",
"400 0 CURVE SMOOTH",
"466 0 LINE",
"426 -112 OFFCURVE",
"342 -245 OFFCURVE",
"297 -297 CURVE",
"253 -196 OFFCURVE",
"210 -99 OFFCURVE",
"181 -48 CURVE SMOOTH",
"127 46 OFFCURVE",
"67 76 OFFCURVE",
"0 76 CURVE SMOOTH",
"-22 76 OFFCURVE",
"-40 62 OFFCURVE",
"-40 38 CURVE SMOOTH",
"-40 14 OFFCURVE",
"-22 0 OFFCURVE",
"0 0 CURVE SMOOTH",
"40 0 OFFCURVE",
"60 -14 OFFCURVE",
"88 -48 CURVE SMOOTH",
"110 -74 OFFCURVE",
"140 -124 OFFCURVE",
"167 -184 CURVE SMOOTH",
"182 -218 OFFCURVE",
"226 -311 OFFCURVE",
"261 -381 CURVE"
);
},
{
closed = 1;
nodes = (
"322 76 OFFCURVE",
"309 119 OFFCURVE",
"309 154 CURVE SMOOTH",
"309 198 OFFCURVE",
"347 258 OFFCURVE",
"410 258 CURVE SMOOTH",
"459 258 OFFCURVE",
"503 224 OFFCURVE",
"503 157 CURVE SMOOTH",
"503 136 OFFCURVE",
"500 101 OFFCURVE",
"492 76 CURVE",
"401 76 LINE SMOOTH"
);
}
);
width = 644;
}
);
script = mand;
category = Letter;
subCategory = Other;
},
{
glyphname = uni0850.Medi;
lastChange = "2020-03-30 20:46:49 +0000";
layers = (
{
anchors = (
{
name = bottom;
position = "{285, -381}";
}
);
layerId = UUID0;
paths = (
{
closed = 1;
nodes = (
"312 -381 LINE",
"391 -288 OFFCURVE",
"480 -163 OFFCURVE",
"542 0 CURVE",
"650 0 LINE",
"650 76 LINE",
"563 76 LINE",
"571 104 OFFCURVE",
"574 137 OFFCURVE",
"574 167 CURVE SMOOTH",
"574 248 OFFCURVE",
"520 331 OFFCURVE",
"410 331 CURVE SMOOTH",
"298 331 OFFCURVE",
"237 223 OFFCURVE",
"237 143 CURVE SMOOTH",
"237 64 OFFCURVE",
"279 0 OFFCURVE",
"399 0 CURVE SMOOTH",
"466 0 LINE",
"430 -102 OFFCURVE",
"341 -244 OFFCURVE",
"297 -296 CURVE",
"253 -196 OFFCURVE",
"212 -100 OFFCURVE",
"182 -48 CURVE SMOOTH",
"128 46 OFFCURVE",
"67 76 OFFCURVE",
"0 76 CURVE SMOOTH",
"-22 76 OFFCURVE",
"-40 62 OFFCURVE",
"-40 38 CURVE SMOOTH",
"-40 14 OFFCURVE",
"-22 0 OFFCURVE",
"0 0 CURVE SMOOTH",
"40 0 OFFCURVE",
"62 -15 OFFCURVE",
"89 -48 CURVE SMOOTH",
"111 -74 OFFCURVE",
"141 -124 OFFCURVE",
"167 -184 CURVE SMOOTH",
"182 -218 OFFCURVE",
"226 -311 OFFCURVE",
"261 -381 CURVE"
);
},
{
closed = 1;
nodes = (
"320 76 OFFCURVE",
"307 119 OFFCURVE",
"307 154 CURVE SMOOTH",
"307 198 OFFCURVE",
"345 258 OFFCURVE",
"408 258 CURVE SMOOTH",
"458 258 OFFCURVE",
"502 224 OFFCURVE",
"502 157 CURVE SMOOTH",
"502 136 OFFCURVE",
"499 101 OFFCURVE",
"490 76 CURVE",
"400 76 LINE SMOOTH"
);
}
);
width = 650;
}
);
script = mand;
category = Letter;
subCategory = Other;
},
{
glyphname = uni0851;
lastChange = "2020-03-30 20:46:49 +0000";
layers = (
{
anchors = (
{
name = bottom;
position = "{276, -380}";
}
);
layerId = UUID0;
paths = (
{
closed = 1;
nodes = (
"303 -361 LINE",
"373 -273 OFFCURVE",
"437 -140 OFFCURVE",
"479 -10 CURVE SMOOTH",
"485 7 OFFCURVE",
"490 24 OFFCURVE",
"494 40 CURVE",
"512 16 OFFCURVE",
"539 0 OFFCURVE",
"583 0 CURVE SMOOTH",
"635 0 OFFCURVE",
"672 24 OFFCURVE",
"697 60 CURVE",
"714 29 OFFCURVE",
"743 0 OFFCURVE",
"804 0 CURVE SMOOTH",
"902 0 OFFCURVE",
"955 75 OFFCURVE",
"955 170 CURVE SMOOTH",
"955 189 OFFCURVE",
"953 209 OFFCURVE",
"948 229 CURVE",
"882 214 LINE",
"883 200 OFFCURVE",
"884 187 OFFCURVE",
"884 174 CURVE SMOOTH",
"884 119 OFFCURVE",
"862 76 OFFCURVE",
"798 76 CURVE SMOOTH",
"767 76 OFFCURVE",
"738 96 OFFCURVE",
"732 126 CURVE",
"736 142 OFFCURVE",
"737 157 OFFCURVE",
"737 174 CURVE SMOOTH",
"737 181 OFFCURVE",
"737 194 OFFCURVE",
"736 201 CURVE",
"668 193 LINE",
"668 126 OFFCURVE",
"646 76 OFFCURVE",
"579 76 CURVE SMOOTH",
"547 76 OFFCURVE",
"516 94 OFFCURVE",
"509 133 CURVE",
"509 164 OFFCURVE",
"508 182 OFFCURVE",
"503 202 CURVE",
"437 192 LINE",
"438 176 OFFCURVE",
"438 146 OFFCURVE",
"438 138 CURVE",
"430 19 OFFCURVE",
"346 -177 OFFCURVE",
"287 -271 CURVE",
"213 -88 OFFCURVE",
"170 63 OFFCURVE",
"138 247 CURVE",
"68 234 LINE",
"96 17 OFFCURVE",
"176 -220 OFFCURVE",
"251 -361 CURVE"
);
}
);
width = 1023;
}
);
unicode = 0851;
script = mand;
category = Letter;
subCategory = Other;
},
{
glyphname = uni0851.Fina;
lastChange = "2020-03-30 20:46:49 +0000";
layers = (
{
anchors = (
{
name = bottom;
position = "{276, -380}";
}
);
layerId = UUID0;
paths = (
{
closed = 1;
nodes = (
"303 -361 LINE",
"373 -273 OFFCURVE",
"437 -140 OFFCURVE",
"479 -10 CURVE SMOOTH",
"485 7 OFFCURVE",
"490 24 OFFCURVE",
"494 40 CURVE",
"512 16 OFFCURVE",
"539 0 OFFCURVE",
"583 0 CURVE SMOOTH",
"636 0 OFFCURVE",
"674 25 OFFCURVE",
"699 62 CURVE",
"721 27 OFFCURVE",
"761 0 OFFCURVE",
"836 0 CURVE SMOOTH",
"842 0 LINE",
"842 76 LINE",
"839 76 LINE SMOOTH",
"784 76 OFFCURVE",
"743 96 OFFCURVE",
"734 134 CURVE",
"736 147 OFFCURVE",
"737 160 OFFCURVE",
"737 174 CURVE SMOOTH",
"737 181 OFFCURVE",
"737 195 OFFCURVE",
"736 202 CURVE",
"668 194 LINE",
"668 127 OFFCURVE",
"646 76 OFFCURVE",
"579 76 CURVE SMOOTH",
"547 76 OFFCURVE",
"516 93 OFFCURVE",
"509 133 CURVE",
"509 162 OFFCURVE",
"509 178 OFFCURVE",
"504 196 CURVE",
"437 187 LINE",
"438 169 OFFCURVE",
"438 146 OFFCURVE",
"438 138 CURVE",
"430 19 OFFCURVE",
"346 -177 OFFCURVE",
"287 -271 CURVE",
"213 -88 OFFCURVE",
"170 63 OFFCURVE",
"138 247 CURVE",
"68 234 LINE",
"96 17 OFFCURVE",
"176 -220 OFFCURVE",
"251 -361 CURVE"
);
}
);
width = 842;
}
);
script = mand;
category = Letter;
subCategory = Other;
},
{
glyphname = uni0851.Init;
lastChange = "2020-03-30 20:46:49 +0000";
layers = (
{
anchors = (
{
name = bottom;
position = "{226, -381}";
}
);
layerId = UUID0;
paths = (
{
closed = 1;
nodes = (
"251 -381 LINE",
"322 -280 OFFCURVE",
"394 -144 OFFCURVE",
"438 -10 CURVE SMOOTH",
"444 9 OFFCURVE",
"450 26 OFFCURVE",
"455 42 CURVE",
"472 18 OFFCURVE",
"500 0 OFFCURVE",
"545 0 CURVE SMOOTH",
"597 0 OFFCURVE",
"634 24 OFFCURVE",
"659 60 CURVE",
"676 29 OFFCURVE",
"705 0 OFFCURVE",
"766 0 CURVE SMOOTH",
"864 0 OFFCURVE",
"917 75 OFFCURVE",
"917 170 CURVE SMOOTH",
"917 189 OFFCURVE",
"915 209 OFFCURVE",
"910 229 CURVE",
"844 214 LINE",
"845 200 OFFCURVE",
"846 187 OFFCURVE",
"846 174 CURVE SMOOTH",
"846 119 OFFCURVE",
"824 76 OFFCURVE",
"760 76 CURVE SMOOTH",
"729 76 OFFCURVE",
"700 96 OFFCURVE",
"694 126 CURVE",
"698 142 OFFCURVE",
"699 157 OFFCURVE",
"699 174 CURVE SMOOTH",
"699 181 OFFCURVE",
"699 195 OFFCURVE",
"698 202 CURVE",
"630 194 LINE",
"630 127 OFFCURVE",
"608 76 OFFCURVE",
"541 76 CURVE SMOOTH",
"509 76 OFFCURVE",
"478 93 OFFCURVE",
"471 134 CURVE",
"471 159 OFFCURVE",
"470 183 OFFCURVE",
"466 196 CURVE",
"399 187 LINE",
"399 172 OFFCURVE",
"399 152 OFFCURVE",
"399 143 CURVE",
"392 23 OFFCURVE",
"300 -174 OFFCURVE",
"241 -274 CURVE",
"204 -161 OFFCURVE",
"188 -108 OFFCURVE",
"167 -52 CURVE SMOOTH",
"128 51 OFFCURVE",
"75 76 OFFCURVE",
"0 76 CURVE SMOOTH",
"-21 76 OFFCURVE",
"-40 62 OFFCURVE",
"-40 38 CURVE SMOOTH",
"-40 14 OFFCURVE",
"-21 0 OFFCURVE",
"0 0 CURVE SMOOTH",
"32 0 OFFCURVE",
"55 -3 OFFCURVE",
"79 -39 CURVE SMOOTH",
"91 -57 OFFCURVE",
"105 -100 OFFCURVE",
"129 -166 CURVE SMOOTH",
"145 -211 OFFCURVE",
"174 -296 OFFCURVE",
"201 -381 CURVE"
);
}
);
width = 985;
}
);
script = mand;
category = Letter;
subCategory = Other;
},
{
glyphname = uni0851.Medi;
lastChange = "2020-03-30 20:46:49 +0000";
layers = (
{
anchors = (
{
name = bottom;
position = "{226, -381}";
}
);
layerId = UUID0;
paths = (
{
closed = 1;
nodes = (
"251 -381 LINE",
"322 -280 OFFCURVE",
"394 -144 OFFCURVE",
"438 -10 CURVE SMOOTH",
"444 9 OFFCURVE",
"450 26 OFFCURVE",
"455 42 CURVE",
"472 18 OFFCURVE",
"500 0 OFFCURVE",
"545 0 CURVE SMOOTH",
"598 0 OFFCURVE",
"636 25 OFFCURVE",
"661 62 CURVE",
"683 27 OFFCURVE",
"723 0 OFFCURVE",
"798 0 CURVE SMOOTH",
"804 0 LINE",
"804 76 LINE",
"801 76 LINE SMOOTH",
"746 76 OFFCURVE",
"705 96 OFFCURVE",
"696 134 CURVE",
"698 147 OFFCURVE",
"699 160 OFFCURVE",
"699 174 CURVE SMOOTH",
"699 181 OFFCURVE",
"699 195 OFFCURVE",
"698 202 CURVE",
"630 194 LINE",
"630 127 OFFCURVE",
"608 76 OFFCURVE",
"541 76 CURVE SMOOTH",
"509 76 OFFCURVE",
"478 93 OFFCURVE",
"471 134 CURVE",
"471 159 OFFCURVE",
"470 183 OFFCURVE",
"466 196 CURVE",
"399 187 LINE",
"399 172 OFFCURVE",
"399 152 OFFCURVE",
"399 143 CURVE",
"392 23 OFFCURVE",
"300 -174 OFFCURVE",
"241 -274 CURVE",
"203 -161 OFFCURVE",
"188 -108 OFFCURVE",
"167 -52 CURVE SMOOTH",
"128 51 OFFCURVE",
"75 76 OFFCURVE",
"0 76 CURVE SMOOTH",
"-21 76 OFFCURVE",
"-40 62 OFFCURVE",
"-40 38 CURVE SMOOTH",
"-40 14 OFFCURVE",
"-21 0 OFFCURVE",
"0 0 CURVE SMOOTH",
"32 0 OFFCURVE",
"55 -3 OFFCURVE",
"79 -39 CURVE SMOOTH",
"91 -57 OFFCURVE",
"105 -100 OFFCURVE",
"129 -166 CURVE SMOOTH",
"145 -211 OFFCURVE",
"174 -296 OFFCURVE",
"201 -381 CURVE"
);
}
);
width = 804;
}
);
script = mand;
category = Letter;
subCategory = Other;
},
{
glyphname = uni0852;
lastChange = "2020-03-30 20:46:49 +0000";
layers = (
{
anchors = (
{
name = bottom;
position = "{438, -49}";
}
);
layerId = UUID0;
paths = (
{
closed = 1;
nodes = (
"779 0 LINE",
"779 487 LINE",
"706 487 LINE",
"706 311 LINE",
"301 311 LINE",
"327 332 OFFCURVE",
"354 359 OFFCURVE",
"366 372 CURVE SMOOTH",
"444 461 LINE",
"389 498 LINE",
"266 359 LINE SMOOTH",
"245 335 OFFCURVE",
"216 305 OFFCURVE",
"200 292 CURVE",
"200 237 LINE",
"351 237 LINE SMOOTH",
"417 237 OFFCURVE",
"441 200 OFFCURVE",
"441 157 CURVE SMOOTH",
"441 112 OFFCURVE",
"416 76 OFFCURVE",
"346 76 CURVE SMOOTH",
"49 76 LINE",
"49 0 LINE"
);
},
{
closed = 1;
nodes = (
"499 93 OFFCURVE",
"514 120 OFFCURVE",
"514 157 CURVE SMOOTH",
"514 198 OFFCURVE",
"497 223 OFFCURVE",
"472 237 CURVE",
"706 237 LINE",
"706 76 LINE",
"467 76 LINE"
);
}
);
width = 862;
}
);
unicode = 0852;
script = mand;
category = Letter;
subCategory = Other;
},
{
glyphname = uni0852.Fina;
lastChange = "2020-03-30 20:46:49 +0000";
layers = (
{
anchors = (
{
name = bottom;
position = "{440, -49}";
}
);
layerId = UUID0;
paths = (
{
closed = 1;
nodes = (
"883 0 LINE",
"883 76 LINE",
"779 76 LINE",
"779 487 LINE",
"706 487 LINE",
"706 311 LINE",
"301 311 LINE",
"328 332 OFFCURVE",
"354 359 OFFCURVE",
"366 372 CURVE SMOOTH",
"444 461 LINE",
"389 498 LINE",
"266 359 LINE SMOOTH",
"245 335 OFFCURVE",
"217 305 OFFCURVE",
"200 292 CURVE",
"200 237 LINE",
"346 237 LINE SMOOTH",
"416 237 OFFCURVE",
"441 202 OFFCURVE",
"441 157 CURVE SMOOTH",
"441 112 OFFCURVE",
"416 76 OFFCURVE",
"346 76 CURVE SMOOTH",
"49 76 LINE",
"49 0 LINE"
);
},
{
closed = 1;
nodes = (
"500 93 OFFCURVE",
"514 120 OFFCURVE",
"514 157 CURVE SMOOTH",
"514 198 OFFCURVE",
"497 223 OFFCURVE",
"472 237 CURVE",
"706 237 LINE",
"706 76 LINE",
"467 76 LINE"
);
}
);
width = 883;
}
);
script = mand;
category = Letter;
subCategory = Other;
},
{
glyphname = uni0852.Init;
lastChange = "2020-03-30 20:46:49 +0000";
layers = (
{
anchors = (
{
name = bottom;
position = "{321, -49}";
}
);
layerId = UUID0;
paths = (
{
closed = 1;
nodes = (
"660 0 LINE",
"660 487 LINE",
"587 487 LINE",
"587 311 LINE",
"183 311 LINE",
"209 332 OFFCURVE",
"236 358 OFFCURVE",
"248 372 CURVE SMOOTH",
"325 461 LINE",
"270 498 LINE",
"147 359 LINE SMOOTH",
"126 335 OFFCURVE",
"98 305 OFFCURVE",
"81 292 CURVE",
"81 237 LINE",
"228 237 LINE SMOOTH",
"297 237 OFFCURVE",
"322 202 OFFCURVE",
"322 157 CURVE SMOOTH",
"322 112 OFFCURVE",
"297 76 OFFCURVE",
"228 76 CURVE SMOOTH",
"0 76 LINE SMOOTH",
"-21 76 OFFCURVE",
"-40 62 OFFCURVE",
"-40 38 CURVE SMOOTH",
"-40 14 OFFCURVE",
"-21 0 OFFCURVE",
"0 0 CURVE SMOOTH"
);
},
{
closed = 1;
nodes = (
"380 93 OFFCURVE",
"396 120 OFFCURVE",
"396 157 CURVE SMOOTH",
"396 198 OFFCURVE",
"378 223 OFFCURVE",
"353 237 CURVE",
"587 237 LINE",
"587 76 LINE",
"348 76 LINE"
);
}
);
width = 743;
}
);
script = mand;
category = Letter;
subCategory = Other;
},
{
glyphname = uni0852.Medi;
lastChange = "2020-03-30 20:46:49 +0000";
layers = (
{
anchors = (
{
name = bottom;
position = "{321, -49}";
}
);
layerId = UUID0;
paths = (
{
closed = 1;
nodes = (
"764 0 LINE",
"764 76 LINE",
"660 76 LINE",
"660 487 LINE",
"587 487 LINE",
"587 311 LINE",
"183 311 LINE",
"209 332 OFFCURVE",
"236 359 OFFCURVE",
"248 372 CURVE SMOOTH",
"325 461 LINE",
"271 498 LINE",
"147 359 LINE SMOOTH",
"126 335 OFFCURVE",
"98 305 OFFCURVE",
"81 292 CURVE",
"81 237 LINE",
"228 237 LINE SMOOTH",
"297 237 OFFCURVE",
"322 202 OFFCURVE",
"322 157 CURVE SMOOTH",
"322 112 OFFCURVE",
"297 76 OFFCURVE",
"228 76 CURVE SMOOTH",
"0 76 LINE SMOOTH",
"-22 76 OFFCURVE",
"-40 62 OFFCURVE",
"-40 38 CURVE SMOOTH",
"-40 14 OFFCURVE",
"-22 0 OFFCURVE",
"0 0 CURVE"
);
},
{
closed = 1;
nodes = (
"380 93 OFFCURVE",
"396 120 OFFCURVE",
"396 157 CURVE SMOOTH",
"396 198 OFFCURVE",
"378 223 OFFCURVE",
"353 237 CURVE",
"587 237 LINE",
"587 76 LINE",
"348 76 LINE"
);
}
);
width = 764;
}
);
script = mand;
category = Letter;
subCategory = Other;
},
{
glyphname = uni0853;
lastChange = "2020-03-30 20:46:49 +0000";
layers = (
{
anchors = (
{
name = bottom;
position = "{432, -49}";
}
);
layerId = UUID0;
paths = (
{
closed = 1;
nodes = (
"748 0 LINE",
"748 487 LINE",
"674 487 LINE",
"674 311 LINE",
"292 311 LINE",
"321 333 OFFCURVE",
"353 364 OFFCURVE",
"366 379 CURVE SMOOTH",
"437 460 LINE",
"382 498 LINE",
"267 367 LINE SMOOTH",
"245 342 OFFCURVE",
"216 313 OFFCURVE",
"200 299 CURVE",
"200 237 LINE",
"674 237 LINE",
"674 76 LINE",
"49 76 LINE",
"49 0 LINE"
);
}
);
width = 831;
}
);
unicode = 0853;
script = mand;
category = Letter;
subCategory = Other;
},
{
glyphname = uni0853.Fina;
lastChange = "2020-03-30 20:46:49 +0000";
layers = (
{
anchors = (
{
name = bottom;
position = "{437, -49}";
}
);
layerId = UUID0;
paths = (
{
closed = 1;
nodes = (
"851 0 LINE",
"851 76 LINE",
"748 76 LINE",
"748 487 LINE",
"674 487 LINE",
"674 311 LINE",
"292 311 LINE",
"321 333 OFFCURVE",
"353 364 OFFCURVE",
"366 379 CURVE SMOOTH",
"437 460 LINE",
"382 498 LINE",
"267 367 LINE SMOOTH",
"245 342 OFFCURVE",
"216 313 OFFCURVE",
"200 299 CURVE",
"200 237 LINE",
"674 237 LINE",
"674 76 LINE",
"49 76 LINE",
"49 0 LINE"
);
}
);
width = 851;
}
);
script = mand;
category = Letter;
subCategory = Other;
},
{
glyphname = uni0853.Init;
lastChange = "2020-03-30 20:46:49 +0000";
layers = (
{
anchors = (
{
name = bottom;
position = "{318, -49}";
}
);
layerId = UUID0;
paths = (
{
closed = 1;
nodes = (
"629 0 LINE",
"629 487 LINE",
"556 487 LINE",
"556 311 LINE",
"173 311 LINE",
"202 333 OFFCURVE",
"234 363 OFFCURVE",
"248 379 CURVE SMOOTH",
"317 460 LINE",
"263 498 LINE",
"147 367 LINE SMOOTH",
"126 343 OFFCURVE",
"98 313 OFFCURVE",
"81 299 CURVE",
"81 237 LINE",
"556 237 LINE",
"556 76 LINE",
"0 76 LINE SMOOTH",
"-22 76 OFFCURVE",
"-40 62 OFFCURVE",
"-40 38 CURVE SMOOTH",
"-40 14 OFFCURVE",
"-22 0 OFFCURVE",
"0 0 CURVE SMOOTH"
);
}
);
width = 712;
}
);
script = mand;
category = Letter;
subCategory = Other;
},
{
glyphname = uni0853.Medi;
lastChange = "2020-03-30 20:46:49 +0000";
layers = (
{
anchors = (
{
name = bottom;
position = "{317, -49}";
}
);
layerId = UUID0;
paths = (
{
closed = 1;
nodes = (
"732 0 LINE",
"732 76 LINE",
"629 76 LINE",
"629 487 LINE",
"556 487 LINE",
"556 311 LINE",
"173 311 LINE",
"202 333 OFFCURVE",
"234 364 OFFCURVE",
"247 379 CURVE SMOOTH",
"317 460 LINE",
"263 498 LINE",
"147 367 LINE SMOOTH",
"125 343 OFFCURVE",
"98 313 OFFCURVE",
"81 299 CURVE",
"81 237 LINE",
"556 237 LINE",
"556 76 LINE",
"0 76 LINE SMOOTH",
"-22 76 OFFCURVE",
"-40 62 OFFCURVE",
"-40 38 CURVE SMOOTH",
"-40 14 OFFCURVE",
"-22 0 OFFCURVE",
"0 0 CURVE SMOOTH"
);
}
);
width = 732;
}
);
script = mand;
category = Letter;
subCategory = Other;
},
{
glyphname = uni0854;
lastChange = "2020-03-30 20:46:49 +0000";
layers = (
{
anchors = (
{
name = bottom;
position = "{442, -255}";
}
);
layerId = UUID0;
paths = (
{
closed = 1;
nodes = (
"481 -240 LINE",
"504 -156 OFFCURVE",
"517 -103 OFFCURVE",
"544 0 CURVE",
"653 0 LINE SMOOTH",
"779 0 OFFCURVE",
"845 64 OFFCURVE",
"845 168 CURVE SMOOTH",
"845 252 OFFCURVE",
"792 337 OFFCURVE",
"689 337 CURVE SMOOTH",
"559 337 OFFCURVE",
"524 217 OFFCURVE",
"494 82 CURVE SMOOTH",
"475 -2 OFFCURVE",
"464 -67 OFFCURVE",
"452 -151 CURVE",
"442 -151 LINE",
"438 -65 OFFCURVE",
"428 -1 OFFCURVE",
"414 83 CURVE SMOOTH",
"390 223 OFFCURVE",
"368 337 OFFCURVE",
"230 337 CURVE SMOOTH",
"126 337 OFFCURVE",
"68 236 OFFCURVE",
"68 154 CURVE SMOOTH",
"68 59 OFFCURVE",
"135 0 OFFCURVE",
"250 0 CURVE SMOOTH",
"359 0 LINE",
"379 -98 OFFCURVE",
"388 -154 OFFCURVE",
"408 -240 CURVE"
);
},
{
closed = 1;
nodes = (
"173 76 OFFCURVE",
"140 110 OFFCURVE",
"140 161 CURVE SMOOTH",
"140 206 OFFCURVE",
"170 264 OFFCURVE",
"233 264 CURVE SMOOTH",
"310 264 OFFCURVE",
"325 172 OFFCURVE",
"342 76 CURVE",
"252 76 LINE SMOOTH"
);
},
{
closed = 1;
nodes = (
"594 189 OFFCURVE",
"617 264 OFFCURVE",
"691 264 CURVE SMOOTH",
"751 264 OFFCURVE",
"770 211 OFFCURVE",
"770 166 CURVE SMOOTH",
"770 115 OFFCURVE",
"738 76 OFFCURVE",
"657 76 CURVE SMOOTH",
"563 76 LINE"
);
}
);
width = 913;
}
);
unicode = 0854;
script = mand;
category = Letter;
subCategory = Other;
},
{
glyphname = uni0854.Fina;
lastChange = "2020-03-30 20:46:49 +0000";
layers = (
{
anchors = (
{
name = bottom;
position = "{442, -255}";
}
);
layerId = UUID0;
paths = (
{
closed = 1;
nodes = (
"481 -240 LINE",
"504 -156 OFFCURVE",
"517 -103 OFFCURVE",
"544 0 CURVE",
"922 0 LINE",
"922 76 LINE",
"813 76 LINE",
"834 100 OFFCURVE",
"845 130 OFFCURVE",
"845 168 CURVE SMOOTH",
"845 252 OFFCURVE",
"792 337 OFFCURVE",
"689 337 CURVE SMOOTH",
"559 337 OFFCURVE",
"524 217 OFFCURVE",
"494 82 CURVE SMOOTH",
"475 -2 OFFCURVE",
"464 -67 OFFCURVE",
"452 -151 CURVE",
"442 -151 LINE",
"438 -65 OFFCURVE",
"428 -1 OFFCURVE",
"414 83 CURVE SMOOTH",
"390 223 OFFCURVE",
"368 337 OFFCURVE",
"230 337 CURVE SMOOTH",
"126 337 OFFCURVE",
"68 236 OFFCURVE",
"68 154 CURVE SMOOTH",
"68 59 OFFCURVE",
"135 0 OFFCURVE",
"250 0 CURVE SMOOTH",
"359 0 LINE",
"379 -98 OFFCURVE",
"388 -154 OFFCURVE",
"408 -240 CURVE"
);
},
{
closed = 1;
nodes = (
"173 76 OFFCURVE",
"140 110 OFFCURVE",
"140 161 CURVE SMOOTH",
"140 206 OFFCURVE",
"170 264 OFFCURVE",
"233 264 CURVE SMOOTH",
"310 264 OFFCURVE",
"325 172 OFFCURVE",
"342 76 CURVE",
"252 76 LINE SMOOTH"
);
},
{
closed = 1;
nodes = (
"594 189 OFFCURVE",
"617 264 OFFCURVE",
"691 264 CURVE SMOOTH",
"751 264 OFFCURVE",
"770 211 OFFCURVE",
"770 166 CURVE SMOOTH",
"770 115 OFFCURVE",
"738 76 OFFCURVE",
"657 76 CURVE SMOOTH",
"563 76 LINE"
);
}
);
width = 922;
}
);
script = mand;
category = Letter;
subCategory = Other;
},
{
glyphname = uni0855;
lastChange = "2020-03-30 20:46:49 +0000";
layers = (
{
anchors = (
{
name = bottom;
position = "{172, -49}";
}
);
layerId = UUID0;
paths = (
{
closed = 1;
nodes = (
"559 -159 LINE",
"559 493 LINE",
"485 493 LINE",
"485 340 LINE",
"451 303 OFFCURVE",
"386 285 OFFCURVE",
"320 285 CURVE SMOOTH",
"311 285 OFFCURVE",
"302 285 OFFCURVE",
"292 287 CURVE",
"284 303 OFFCURVE",
"275 319 OFFCURVE",
"264 337 CURVE",
"203 293 LINE",
"238 232 OFFCURVE",
"260 175 OFFCURVE",
"260 138 CURVE SMOOTH",
"260 95 OFFCURVE",
"238 76 OFFCURVE",
"175 76 CURVE SMOOTH",
"49 76 LINE",
"49 0 LINE",
"173 0 LINE SMOOTH",
"262 0 OFFCURVE",
"333 33 OFFCURVE",
"333 132 CURVE SMOOTH",
"333 151 OFFCURVE",
"330 180 OFFCURVE",
"321 213 CURVE",
"326 213 OFFCURVE",
"331 213 OFFCURVE",
"334 213 CURVE SMOOTH",
"396 213 OFFCURVE",
"443 228 OFFCURVE",
"485 258 CURVE",
"485 -159 LINE"
);
}
);
width = 642;
}
);
unicode = 0855;
script = mand;
category = Letter;
subCategory = Other;
},
{
glyphname = uni0855.Fina;
lastChange = "2020-03-30 20:46:49 +0000";
layers = (
{
anchors = (
{
name = bottom;
position = "{172, -49}";
}
);
layerId = UUID0;
paths = (
{
closed = 1;
nodes = (
"173 0 LINE SMOOTH",
"263 0 OFFCURVE",
"334 33 OFFCURVE",
"334 132 CURVE SMOOTH",
"334 151 OFFCURVE",
"331 180 OFFCURVE",
"321 213 CURVE",
"327 213 OFFCURVE",
"331 213 OFFCURVE",
"335 213 CURVE SMOOTH",
"397 213 OFFCURVE",
"444 228 OFFCURVE",
"486 258 CURVE",
"486 179 LINE SMOOTH",
"486 47 OFFCURVE",
"538 0 OFFCURVE",
"630 0 CURVE SMOOTH",
"663 0 LINE",
"663 76 LINE",
"643 76 LINE SMOOTH",
"598 76 OFFCURVE",
"559 82 OFFCURVE",
"559 186 CURVE SMOOTH",
"559 493 LINE",
"486 493 LINE",
"486 340 LINE",
"452 303 OFFCURVE",
"387 285 OFFCURVE",
"320 285 CURVE SMOOTH",
"312 285 OFFCURVE",
"303 285 OFFCURVE",
"293 287 CURVE",
"285 303 OFFCURVE",
"275 319 OFFCURVE",
"264 337 CURVE",
"204 293 LINE",
"239 232 OFFCURVE",
"261 175 OFFCURVE",
"261 138 CURVE SMOOTH",
"261 95 OFFCURVE",
"238 76 OFFCURVE",
"176 76 CURVE SMOOTH",
"49 76 LINE",
"49 0 LINE"
);
}
);
width = 663;
}
);
script = mand;
category = Letter;
subCategory = Other;
},
{
glyphname = uni0855.Init;
lastChange = "2020-03-30 20:46:49 +0000";
layers = (
{
anchors = (
{
name = bottom;
position = "{50, -49}";
}
);
layerId = UUID0;
paths = (
{
closed = 1;
nodes = (
"436 -159 LINE",
"436 493 LINE",
"363 493 LINE",
"363 340 LINE",
"329 303 OFFCURVE",
"264 285 OFFCURVE",
"197 285 CURVE SMOOTH",
"188 285 OFFCURVE",
"180 285 OFFCURVE",
"170 287 CURVE",
"162 303 OFFCURVE",
"152 319 OFFCURVE",
"141 337 CURVE",
"81 293 LINE",
"116 232 OFFCURVE",
"138 175 OFFCURVE",
"138 138 CURVE SMOOTH",
"138 95 OFFCURVE",
"115 76 OFFCURVE",
"53 76 CURVE SMOOTH",
"0 76 LINE SMOOTH",
"-22 76 OFFCURVE",
"-40 62 OFFCURVE",
"-40 38 CURVE SMOOTH",
"-40 14 OFFCURVE",
"-22 0 OFFCURVE",
"0 0 CURVE SMOOTH",
"50 0 LINE SMOOTH",
"140 0 OFFCURVE",
"211 33 OFFCURVE",
"211 132 CURVE SMOOTH",
"211 151 OFFCURVE",
"208 180 OFFCURVE",
"198 213 CURVE",
"204 213 OFFCURVE",
"208 213 OFFCURVE",
"212 213 CURVE SMOOTH",
"274 213 OFFCURVE",
"321 228 OFFCURVE",
"363 258 CURVE",
"363 -159 LINE"
);
}
);
width = 519;
}
);
script = mand;
category = Letter;
subCategory = Other;
},
{
glyphname = uni0855.Medi;
lastChange = "2020-03-30 20:46:49 +0000";
layers = (
{
anchors = (
{
name = bottom;
position = "{50, -49}";
}
);
layerId = UUID0;
paths = (
{
closed = 1;
nodes = (
"50 0 LINE SMOOTH",
"140 0 OFFCURVE",
"211 33 OFFCURVE",
"211 132 CURVE SMOOTH",
"211 151 OFFCURVE",
"208 180 OFFCURVE",
"198 213 CURVE",
"204 213 OFFCURVE",
"208 213 OFFCURVE",
"212 213 CURVE SMOOTH",
"274 213 OFFCURVE",
"321 228 OFFCURVE",
"363 258 CURVE",
"363 179 LINE SMOOTH",
"363 47 OFFCURVE",
"415 0 OFFCURVE",
"507 0 CURVE SMOOTH",
"540 0 LINE",
"540 76 LINE",
"520 76 LINE SMOOTH",
"475 76 OFFCURVE",
"436 82 OFFCURVE",
"436 186 CURVE SMOOTH",
"436 493 LINE",
"363 493 LINE",
"363 340 LINE",
"329 303 OFFCURVE",
"264 285 OFFCURVE",
"197 285 CURVE SMOOTH",
"188 285 OFFCURVE",
"180 285 OFFCURVE",
"170 287 CURVE",
"162 303 OFFCURVE",
"152 319 OFFCURVE",
"141 337 CURVE",
"81 293 LINE",
"116 232 OFFCURVE",
"138 175 OFFCURVE",
"138 138 CURVE SMOOTH",
"138 95 OFFCURVE",
"115 76 OFFCURVE",
"53 76 CURVE SMOOTH",
"0 76 LINE SMOOTH",
"-22 76 OFFCURVE",
"-40 62 OFFCURVE",
"-40 38 CURVE SMOOTH",
"-40 14 OFFCURVE",
"-22 0 OFFCURVE",
"0 0 CURVE SMOOTH"
);
}
);
width = 540;
}
);
script = mand;
category = Letter;
subCategory = Other;
},
{
glyphname = uni0856;
lastChange = "2020-03-30 20:46:49 +0000";
layers = (
{
anchors = (
{
name = bottom;
position = "{305, -49}";
}
);
layerId = UUID0;
paths = (
{
closed = 1;
nodes = (
"714 0 LINE",
"714 76 LINE",
"584 76 LINE SMOOTH",
"540 76 OFFCURVE",
"520 81 OFFCURVE",
"520 112 CURVE SMOOTH",
"520 153 OFFCURVE",
"607 245 OFFCURVE",
"670 295 CURVE",
"619 339 LINE",
"545 282 OFFCURVE",
"447 183 OFFCURVE",
"447 104 CURVE SMOOTH",
"447 95 OFFCURVE",
"447 85 OFFCURVE",
"449 76 CURVE",
"140 76 LINE",
"153 125 OFFCURVE",
"253 240 OFFCURVE",
"315 295 CURVE",
"264 339 LINE",
"188 280 OFFCURVE",
"68 145 OFFCURVE",
"68 63 CURVE SMOOTH",
"68 17 OFFCURVE",
"93 0 OFFCURVE",
"134 0 CURVE SMOOTH"
);
}
);
width = 763;
}
);
unicode = 0856;
script = mand;
category = Letter;
subCategory = Other;
},
{
glyphname = uni0857;
lastChange = "2020-03-30 20:46:49 +0000";
layers = (
{
anchors = (
{
name = bottom;
position = "{418, -49}";
}
);
layerId = UUID0;
paths = (
{
closed = 1;
nodes = (
"799 -381 LINE",
"867 -318 OFFCURVE",
"1016 -136 OFFCURVE",
"1070 -3 CURVE SMOOTH",
"1075 10 OFFCURVE",
"1077 21 OFFCURVE",
"1077 30 CURVE SMOOTH",
"1077 63 OFFCURVE",
"1052 76 OFFCURVE",
"1026 76 CURVE SMOOTH",
"860 76 LINE",
"864 115 OFFCURVE",
"935 220 OFFCURVE",
"1025 292 CURVE",
"978 339 LINE",
"907 291 OFFCURVE",
"792 151 OFFCURVE",
"792 69 CURVE SMOOTH",
"792 19 OFFCURVE",
"825 0 OFFCURVE",
"867 0 CURVE SMOOTH",
"995 0 LINE",
"943 -102 OFFCURVE",
"831 -251 OFFCURVE",
"789 -294 CURVE",
"762 -215 OFFCURVE",
"733 -131 OFFCURVE",
"709 -61 CURVE SMOOTH",
"661 79 OFFCURVE",
"611 228 OFFCURVE",
"561 333 CURVE",
"491 300 LINE",
"521 235 OFFCURVE",
"551 159 OFFCURVE",
"580 76 CURVE",
"137 76 LINE",
"150 125 OFFCURVE",
"250 240 OFFCURVE",
"312 295 CURVE",
"261 339 LINE",
"185 280 OFFCURVE",
"65 145 OFFCURVE",
"65 63 CURVE SMOOTH",
"65 17 OFFCURVE",
"90 0 OFFCURVE",
"131 0 CURVE SMOOTH",
"606 0 LINE",
"636 -82 OFFCURVE",
"704 -282 OFFCURVE",
"747 -381 CURVE"
);
}
);
width = 1133;
}
);
unicode = 0857;
script = mand;
category = Letter;
subCategory = Other;
},
{
glyphname = uni0858;
lastChange = "2020-03-30 20:46:49 +0000";
layers = (
{
anchors = (
{
name = bottom;
position = "{180, -380}";
}
);
layerId = UUID0;
paths = (
{
closed = 1;
nodes = (
"410 -326 LINE",
"341 -308 OFFCURVE",
"151 -244 OFFCURVE",
"125 -219 CURVE",
"148 -187 OFFCURVE",
"297 -75 OFFCURVE",
"387 -18 CURVE",
"387 47 LINE",
"330 56 OFFCURVE",
"186 85 OFFCURVE",
"156 96 CURVE",
"175 131 OFFCURVE",
"324 250 OFFCURVE",
"399 300 CURVE",
"360 361 LINE",
"289 319 OFFCURVE",
"166 220 OFFCURVE",
"115 153 CURVE SMOOTH",
"98 130 OFFCURVE",
"90 112 OFFCURVE",
"90 84 CURVE SMOOTH",
"90 58 OFFCURVE",
"104 32 OFFCURVE",
"143 21 CURVE SMOOTH",
"178 11 OFFCURVE",
"234 0 OFFCURVE",
"277 -8 CURVE",
"183 -73 OFFCURVE",
"106 -126 OFFCURVE",
"80 -165 CURVE SMOOTH",
"64 -188 OFFCURVE",
"57 -206 OFFCURVE",
"57 -233 CURVE SMOOTH",
"57 -264 OFFCURVE",
"74 -284 OFFCURVE",
"104 -301 CURVE SMOOTH",
"154 -330 OFFCURVE",
"306 -385 OFFCURVE",
"382 -403 CURVE"
);
}
);
width = 476;
}
);
unicode = 0858;
script = mand;
category = Letter;
subCategory = Other;
},
{
glyphname = uni0859;
lastChange = "2020-03-30 20:46:49 +0000";
layers = (
{
anchors = (
{
name = _bottom;
position = "{0, -49}";
}
);
layerId = UUID0;
paths = (
{
closed = 1;
nodes = (
"108 -174 OFFCURVE",
"128 -158 OFFCURVE",
"128 -124 CURVE SMOOTH",
"128 -89 OFFCURVE",
"108 -73 OFFCURVE",
"83 -73 CURVE SMOOTH",
"58 -73 OFFCURVE",
"39 -89 OFFCURVE",
"39 -124 CURVE SMOOTH",
"39 -158 OFFCURVE",
"58 -174 OFFCURVE",
"83 -174 CURVE SMOOTH"
);
},
{
closed = 1;
nodes = (
"-60 -174 OFFCURVE",
"-39 -158 OFFCURVE",
"-39 -124 CURVE SMOOTH",
"-39 -89 OFFCURVE",
"-60 -73 OFFCURVE",
"-83 -73 CURVE SMOOTH",
"-108 -73 OFFCURVE",
"-128 -89 OFFCURVE",
"-128 -124 CURVE SMOOTH",
"-128 -158 OFFCURVE",
"-108 -174 OFFCURVE",
"-83 -174 CURVE SMOOTH"
);
}
);
width = 0;
}
);
unicode = 0859;
script = mand;
category = Mark;
subCategory = Nonspacing;
},
{
glyphname = uni085A;
lastChange = "2020-03-30 20:46:49 +0000";
layers = (
{
anchors = (
{
name = _bottom;
position = "{0, -49}";
}
);
layerId = UUID0;
paths = (
{
closed = 1;
nodes = (
"124 -162 LINE",
"124 -86 LINE",
"-124 -86 LINE",
"-124 -162 LINE"
);
}
);
width = 0;
}
);
unicode = 085A;
script = mand;
category = Mark;
subCategory = Nonspacing;
},
{
glyphname = uni085B;
lastChange = "2020-03-30 20:46:49 +0000";
layers = (
{
anchors = (
{
name = _bottom;
position = "{0, -49}";
}
);
layerId = UUID0;
paths = (
{
closed = 1;
nodes = (
"24 -174 OFFCURVE",
"44 -158 OFFCURVE",
"44 -124 CURVE SMOOTH",
"44 -89 OFFCURVE",
"24 -73 OFFCURVE",
"0 -73 CURVE SMOOTH",
"-25 -73 OFFCURVE",
"-45 -89 OFFCURVE",
"-45 -124 CURVE SMOOTH",
"-45 -158 OFFCURVE",
"-25 -174 OFFCURVE",
"0 -174 CURVE SMOOTH"
);
}
);
width = 0;
}
);
unicode = 085B;
script = mand;
category = Mark;
subCategory = Nonspacing;
},
{
glyphname = uni085E;
lastChange = "2020-03-30 20:46:49 +0000";
layers = (
{
layerId = UUID0;
paths = (
{
closed = 1;
nodes = (
"389 -148 OFFCURVE",
"479 -63 OFFCURVE",
"479 52 CURVE SMOOTH",
"479 177 OFFCURVE",
"389 252 OFFCURVE",
"278 252 CURVE SMOOTH",
"168 252 OFFCURVE",
"78 167 OFFCURVE",
"78 52 CURVE SMOOTH",
"78 -73 OFFCURVE",
"168 -148 OFFCURVE",
"278 -148 CURVE SMOOTH"
);
},
{
closed = 1;
nodes = (
"184 -119 OFFCURVE",
"107 -57 OFFCURVE",
"107 52 CURVE SMOOTH",
"107 151 OFFCURVE",
"184 223 OFFCURVE",
"278 223 CURVE SMOOTH",
"373 223 OFFCURVE",
"449 161 OFFCURVE",
"449 52 CURVE SMOOTH",
"449 -47 OFFCURVE",
"373 -119 OFFCURVE",
"278 -119 CURVE SMOOTH"
);
},
{
closed = 1;
nodes = (
"340 -61 OFFCURVE",
"391 -10 OFFCURVE",
"391 52 CURVE SMOOTH",
"391 119 OFFCURVE",
"340 164 OFFCURVE",
"278 164 CURVE SMOOTH",
"216 164 OFFCURVE",
"166 114 OFFCURVE",
"166 52 CURVE SMOOTH",
"166 -15 OFFCURVE",
"216 -61 OFFCURVE",
"278 -61 CURVE SMOOTH"
);
},
{
closed = 1;
nodes = (
"232 -31 OFFCURVE",
"195 1 OFFCURVE",
"195 52 CURVE SMOOTH",
"195 98 OFFCURVE",
"232 135 OFFCURVE",
"278 135 CURVE SMOOTH",
"324 135 OFFCURVE",
"361 103 OFFCURVE",
"361 52 CURVE SMOOTH",
"361 6 OFFCURVE",
"324 -31 OFFCURVE",
"278 -31 CURVE SMOOTH"
);
}
);
width = 557;
}
);
unicode = 085E;
script = mand;
category = Punctuation;
subCategory = Other;
},
{
glyphname = uni0847.Medi;
lastChange = "2020-03-30 20:46:49 +0000";
layers = (
{
anchors = (
{
name = bottom;
position = "{396, -49}";
}
);
layerId = UUID0;
paths = (
{
closed = 1;
nodes = (
"243 -5 OFFCURVE",
"462 -1 OFFCURVE",
"528 0 CURVE SMOOTH",
"611 1 OFFCURVE",
"651 14 OFFCURVE",
"670 43 CURVE",
"691 16 OFFCURVE",
"719 0 OFFCURVE",
"785 0 CURVE SMOOTH",
"789 0 LINE",
"789 76 LINE",
"736 76 OFFCURVE",
"724 100 OFFCURVE",
"711 144 CURVE SMOOTH",
"673 274 OFFCURVE",
"613 337 OFFCURVE",
"503 337 CURVE SMOOTH",
"402 337 OFFCURVE",
"222 276 OFFCURVE",
"131 207 CURVE SMOOTH",
"94 179 OFFCURVE",
"73 148 OFFCURVE",
"65 118 CURVE",
"53 90 OFFCURVE",
"33 76 OFFCURVE",
"0 76 CURVE SMOOTH",
"-22 76 OFFCURVE",
"-40 62 OFFCURVE",
"-40 38 CURVE SMOOTH",
"-40 14 OFFCURVE",
"-22 0 OFFCURVE",
"0 0 CURVE SMOOTH",
"37 0 OFFCURVE",
"60 12 OFFCURVE",
"77 31 CURVE",
"98 2 OFFCURVE",
"135 -5 OFFCURVE",
"163 -5 CURVE SMOOTH"
);
},
{
closed = 1;
nodes = (
"149 71 OFFCURVE",
"135 83 OFFCURVE",
"135 103 CURVE SMOOTH",
"135 119 OFFCURVE",
"149 134 OFFCURVE",
"164 145 CURVE SMOOTH",
"232 198 OFFCURVE",
"425 264 OFFCURVE",
"493 264 CURVE SMOOTH",
"554 264 OFFCURVE",
"592 239 OFFCURVE",
"618 182 CURVE SMOOTH",
"628 159 OFFCURVE",
"637 137 OFFCURVE",
"637 122 CURVE SMOOTH",
"637 79 OFFCURVE",
"567 77 OFFCURVE",
"540 76 CURVE SMOOTH",
"439 73 OFFCURVE",
"210 71 OFFCURVE",
"177 71 CURVE SMOOTH"
);
}
);
width = 789;
}
);
script = mand;
category = Letter;
subCategory = Other;
},
{
glyphname = uni0848.Isol_Long;
lastChange = "2020-03-30 20:46:49 +0000";
layers = (
{
anchors = (
{
name = bottom;
position = "{282, -49}";
}
);
layerId = UUID0;
paths = (
{
closed = 1;
nodes = (
"610 0 LINE",
"610 76 LINE",
"495 76 LINE",
"607 381 LINE SMOOTH",
"636 459 OFFCURVE",
"661 533 OFFCURVE",
"661 589 CURVE SMOOTH",
"661 670 OFFCURVE",
"618 724 OFFCURVE",
"539 724 CURVE SMOOTH",
"458 724 OFFCURVE",
"408 663 OFFCURVE",
"379 589 CURVE SMOOTH",
"179 76 LINE",
"49 76 LINE",
"49 0 LINE"
);
},
{
closed = 1;
nodes = (
"449 562 LINE SMOOTH",
"469 612 OFFCURVE",
"494 651 OFFCURVE",
"534 651 CURVE SMOOTH",
"576 651 OFFCURVE",
"587 617 OFFCURVE",
"587 586 CURVE SMOOTH",
"587 537 OFFCURVE",
"556 452 OFFCURVE",
"536 399 CURVE SMOOTH",
"412 76 LINE",
"258 76 LINE"
);
}
);
width = 744;
}
);
script = mand;
category = Letter;
subCategory = Composition;
},
{
glyphname = uni0848.Init_Long;
lastChange = "2020-03-30 20:46:49 +0000";
layers = (
{
anchors = (
{
name = bottom;
position = "{172, -49}";
}
);
layerId = UUID0;
paths = (
{
closed = 1;
nodes = (
"500 0 LINE",
"500 76 LINE",
"385 76 LINE",
"498 381 LINE SMOOTH",
"526 458 OFFCURVE",
"551 533 OFFCURVE",
"551 589 CURVE SMOOTH",
"551 670 OFFCURVE",
"507 724 OFFCURVE",
"428 724 CURVE SMOOTH",
"348 724 OFFCURVE",
"299 663 OFFCURVE",
"270 589 CURVE SMOOTH",
"68 76 LINE",
"0 76 LINE SMOOTH",
"-22 76 OFFCURVE",
"-40 62 OFFCURVE",
"-40 38 CURVE SMOOTH",
"-40 14 OFFCURVE",
"-22 0 OFFCURVE",
"0 0 CURVE"
);
},
{
closed = 1;
nodes = (
"339 562 LINE SMOOTH",
"359 612 OFFCURVE",
"383 651 OFFCURVE",
"424 651 CURVE SMOOTH",
"466 651 OFFCURVE",
"477 617 OFFCURVE",
"477 586 CURVE SMOOTH",
"477 538 OFFCURVE",
"445 452 OFFCURVE",
"425 399 CURVE SMOOTH",
"302 76 LINE",
"148 76 LINE"
);
}
);
width = 634;
}
);
script = mand;
category = Letter;
subCategory = Composition;
},
{
glyphname = uni0848.Medi_Long;
lastChange = "2020-03-30 20:46:49 +0000";
layers = (
{
anchors = (
{
name = bottom;
position = "{172, -49}";
}
);
layerId = UUID0;
paths = (
{
closed = 1;
nodes = (
"645 0 LINE",
"645 76 LINE",
"385 76 LINE",
"498 381 LINE SMOOTH",
"526 458 OFFCURVE",
"551 533 OFFCURVE",
"551 589 CURVE SMOOTH",
"551 670 OFFCURVE",
"507 724 OFFCURVE",
"428 724 CURVE SMOOTH",
"348 724 OFFCURVE",
"299 664 OFFCURVE",
"270 589 CURVE SMOOTH",
"69 76 LINE",
"0 76 LINE SMOOTH",
"-22 76 OFFCURVE",
"-40 62 OFFCURVE",
"-40 38 CURVE SMOOTH",
"-40 14 OFFCURVE",
"-22 0 OFFCURVE",
"0 0 CURVE"
);
},
{
closed = 1;
nodes = (
"339 562 LINE SMOOTH",
"359 612 OFFCURVE",
"383 651 OFFCURVE",
"424 651 CURVE SMOOTH",
"466 651 OFFCURVE",
"477 617 OFFCURVE",
"477 586 CURVE SMOOTH",
"477 538 OFFCURVE",
"445 452 OFFCURVE",
"425 399 CURVE SMOOTH",
"302 76 LINE",
"148 76 LINE"
);
}
);
width = 645;
}
);
script = mand;
category = Letter;
subCategory = Composition;
},
{
glyphname = uni0848.Fina_Long;
lastChange = "2020-03-30 20:46:49 +0000";
layers = (
{
anchors = (
{
name = bottom;
position = "{282, -49}";
}
);
layerId = UUID0;
paths = (
{
closed = 1;
nodes = (
"755 0 LINE",
"755 76 LINE",
"495 76 LINE",
"607 381 LINE SMOOTH",
"636 459 OFFCURVE",
"661 533 OFFCURVE",
"661 589 CURVE SMOOTH",
"661 670 OFFCURVE",
"618 724 OFFCURVE",
"539 724 CURVE SMOOTH",
"458 724 OFFCURVE",
"408 663 OFFCURVE",
"379 589 CURVE SMOOTH",
"179 76 LINE",
"49 76 LINE",
"49 0 LINE"
);
},
{
closed = 1;
nodes = (
"449 562 LINE SMOOTH",
"469 612 OFFCURVE",
"494 651 OFFCURVE",
"534 651 CURVE SMOOTH",
"576 651 OFFCURVE",
"587 617 OFFCURVE",
"587 586 CURVE SMOOTH",
"587 537 OFFCURVE",
"556 452 OFFCURVE",
"536 399 CURVE SMOOTH",
"412 76 LINE",
"258 76 LINE"
);
}
);
width = 755;
}
);
script = mand;
category = Letter;
subCategory = Composition;
},
{
glyphname = uni0849.Fina_Short;
lastChange = "2020-03-30 20:46:49 +0000";
layers = (
{
anchors = (
{
name = bottom;
position = "{229, -49}";
}
);
layerId = UUID0;
paths = (
{
closed = 1;
nodes = (
"361 0 LINE",
"361 76 LINE",
"130 76 LINE",
"144 125 OFFCURVE",
"239 240 OFFCURVE",
"301 295 CURVE",
"254 339 LINE",
"178 280 OFFCURVE",
"59 145 OFFCURVE",
"59 63 CURVE SMOOTH",
"59 17 OFFCURVE",
"83 0 OFFCURVE",
"125 0 CURVE"
);
}
);
width = 361;
}
);
script = mand;
category = Letter;
subCategory = Composition;
},
{
glyphname = uni0849.Fina_XShort;
lastChange = "2020-03-30 20:46:49 +0000";
layers = (
{
anchors = (
{
name = bottom;
position = "{229, -49}";
}
);
layerId = UUID0;
paths = (
{
closed = 1;
nodes = (
"313 0 LINE",
"313 76 LINE",
"130 76 LINE",
"144 125 OFFCURVE",
"239 240 OFFCURVE",
"301 295 CURVE",
"254 339 LINE",
"178 280 OFFCURVE",
"59 145 OFFCURVE",
"59 63 CURVE SMOOTH",
"59 17 OFFCURVE",
"83 0 OFFCURVE",
"125 0 CURVE"
);
}
);
width = 313;
}
);
script = mand;
category = Letter;
subCategory = Composition;
},
{
glyphname = uni0840.Fina_XShort;
lastChange = "2020-03-30 20:46:49 +0000";
layers = (
{
anchors = (
{
name = bottom;
position = "{275, -49}";
}
);
layerId = UUID0;
paths = (
{
closed = 1;
nodes = (
"497 0 LINE",
"497 76 LINE",
"472 76 LINE",
"469 228 OFFCURVE",
"420 327 OFFCURVE",
"292 327 CURVE SMOOTH",
"160 327 OFFCURVE",
"63 213 OFFCURVE",
"63 93 CURVE SMOOTH",
"63 20 OFFCURVE",
"120 0 OFFCURVE",
"164 0 CURVE"
);
},
{
closed = 1;
nodes = (
"148 76 OFFCURVE",
"136 90 OFFCURVE",
"136 109 CURVE SMOOTH",
"136 170 OFFCURVE",
"199 254 OFFCURVE",
"285 254 CURVE SMOOTH",
"352 254 OFFCURVE",
"391 221 OFFCURVE",
"395 76 CURVE",
"173 76 LINE"
);
}
);
width = 497;
}
);
script = mand;
category = Letter;
subCategory = Composition;
},
{
glyphname = uni0847.Fina_XShort;
lastChange = "2020-03-30 20:46:49 +0000";
layers = (
{
anchors = (
{
name = bottom;
position = "{394, -49}";
}
);
layerId = UUID0;
paths = (
{
closed = 1;
nodes = (
"280 -5 OFFCURVE",
"480 -1 OFFCURVE",
"525 0 CURVE SMOOTH",
"608 2 OFFCURVE",
"648 14 OFFCURVE",
"667 43 CURVE",
"678 17 OFFCURVE",
"699 0 OFFCURVE",
"741 0 CURVE SMOOTH",
"752 0 LINE",
"752 76 LINE",
"724 76 OFFCURVE",
"718 99 OFFCURVE",
"707 144 CURVE SMOOTH",
"674 273 OFFCURVE",
"611 337 OFFCURVE",
"501 337 CURVE SMOOTH",
"400 337 OFFCURVE",
"221 276 OFFCURVE",
"128 207 CURVE SMOOTH",
"81 172 OFFCURVE",
"59 129 OFFCURVE",
"59 88 CURVE SMOOTH",
"59 12 OFFCURVE",
"119 -5 OFFCURVE",
"160 -5 CURVE SMOOTH"
);
},
{
closed = 1;
nodes = (
"147 71 OFFCURVE",
"133 83 OFFCURVE",
"133 103 CURVE SMOOTH",
"133 119 OFFCURVE",
"146 134 OFFCURVE",
"161 145 CURVE SMOOTH",
"230 198 OFFCURVE",
"423 264 OFFCURVE",
"490 264 CURVE SMOOTH",
"551 264 OFFCURVE",
"590 239 OFFCURVE",
"615 182 CURVE SMOOTH",
"625 159 OFFCURVE",
"634 137 OFFCURVE",
"634 122 CURVE SMOOTH",
"634 79 OFFCURVE",
"564 77 OFFCURVE",
"538 76 CURVE SMOOTH",
"436 73 OFFCURVE",
"208 71 OFFCURVE",
"175 71 CURVE SMOOTH"
);
}
);
width = 752;
}
);
script = mand;
category = Letter;
subCategory = Composition;
},
{
glyphname = uni0844.Medi_XShort;
lastChange = "2020-03-30 20:46:49 +0000";
layers = (
{
anchors = (
{
name = bottom;
position = "{295, -49}";
}
);
layerId = UUID0;
paths = (
{
closed = 1;
nodes = (
"29 0 LINE SMOOTH",
"108 0 OFFCURVE",
"159 23 OFFCURVE",
"187 59 CURVE",
"208 25 OFFCURVE",
"241 0 OFFCURVE",
"298 0 CURVE SMOOTH",
"351 0 OFFCURVE",
"380 22 OFFCURVE",
"400 54 CURVE",
"421 10 OFFCURVE",
"466 0 OFFCURVE",
"490 0 CURVE",
"490 76 LINE",
"462 76 OFFCURVE",
"447 98 OFFCURVE",
"444 135 CURVE",
"445 141 OFFCURVE",
"445 149 OFFCURVE",
"445 158 CURVE SMOOTH",
"445 169 OFFCURVE",
"444 188 OFFCURVE",
"441 204 CURVE",
"375 191 LINE",
"375 184 OFFCURVE",
"375 176 OFFCURVE",
"375 169 CURVE SMOOTH",
"375 114 OFFCURVE",
"355 76 OFFCURVE",
"295 76 CURVE SMOOTH",
"264 76 OFFCURVE",
"231 94 OFFCURVE",
"225 135 CURVE",
"227 147 OFFCURVE",
"228 161 OFFCURVE",
"228 174 CURVE SMOOTH",
"228 181 OFFCURVE",
"228 189 OFFCURVE",
"227 196 CURVE",
"159 188 LINE",
"159 126 OFFCURVE",
"140 76 OFFCURVE",
"39 76 CURVE SMOOTH",
"0 76 LINE SMOOTH",
"-21 76 OFFCURVE",
"-40 62 OFFCURVE",
"-40 38 CURVE SMOOTH",
"-40 14 OFFCURVE",
"-21 0 OFFCURVE",
"0 0 CURVE SMOOTH"
);
}
);
width = 490;
}
);
script = mand;
category = Letter;
subCategory = Composition;
},
{
glyphname = uni0844.Fina_XShort;
lastChange = "2020-03-30 20:46:49 +0000";
layers = (
{
anchors = (
{
name = bottom;
position = "{461, -49}";
}
);
layerId = UUID0;
paths = (
{
closed = 1;
nodes = (
"186 0 LINE SMOOTH",
"265 0 OFFCURVE",
"323 23 OFFCURVE",
"351 59 CURVE",
"372 25 OFFCURVE",
"409 0 OFFCURVE",
"464 0 CURVE SMOOTH",
"517 0 OFFCURVE",
"547 22 OFFCURVE",
"567 54 CURVE",
"587 10 OFFCURVE",
"632 0 OFFCURVE",
"656 0 CURVE",
"656 76 LINE",
"628 76 OFFCURVE",
"613 98 OFFCURVE",
"611 135 CURVE",
"611 141 OFFCURVE",
"611 149 OFFCURVE",
"611 158 CURVE SMOOTH",
"611 169 OFFCURVE",
"611 188 OFFCURVE",
"608 204 CURVE",
"541 191 LINE",
"542 184 OFFCURVE",
"542 176 OFFCURVE",
"542 169 CURVE SMOOTH",
"542 114 OFFCURVE",
"521 76 OFFCURVE",
"461 76 CURVE SMOOTH",
"430 76 OFFCURVE",
"397 94 OFFCURVE",
"391 135 CURVE",
"393 147 OFFCURVE",
"394 161 OFFCURVE",
"394 174 CURVE SMOOTH",
"394 181 OFFCURVE",
"394 189 OFFCURVE",
"393 196 CURVE",
"326 188 LINE",
"323 121 OFFCURVE",
"296 76 OFFCURVE",
"195 76 CURVE SMOOTH",
"49 76 LINE",
"49 0 LINE"
);
}
);
width = 656;
}
);
script = mand;
category = Letter;
subCategory = Composition;
},
{
glyphname = uni0848.Medi_Short;
lastChange = "2020-03-30 20:46:49 +0000";
layers = (
{
anchors = (
{
name = bottom;
position = "{172, -49}";
}
);
layerId = UUID0;
paths = (
{
closed = 1;
nodes = (
"514 0 LINE",
"514 76 LINE",
"385 76 LINE",
"498 381 LINE SMOOTH",
"526 458 OFFCURVE",
"551 533 OFFCURVE",
"551 589 CURVE SMOOTH",
"551 670 OFFCURVE",
"507 724 OFFCURVE",
"428 724 CURVE SMOOTH",
"348 724 OFFCURVE",
"299 664 OFFCURVE",
"270 589 CURVE SMOOTH",
"69 76 LINE",
"0 76 LINE SMOOTH",
"-22 76 OFFCURVE",
"-40 62 OFFCURVE",
"-40 38 CURVE SMOOTH",
"-40 14 OFFCURVE",
"-22 0 OFFCURVE",
"0 0 CURVE"
);
},
{
closed = 1;
nodes = (
"339 562 LINE SMOOTH",
"359 612 OFFCURVE",
"383 651 OFFCURVE",
"424 651 CURVE SMOOTH",
"466 651 OFFCURVE",
"477 617 OFFCURVE",
"477 586 CURVE SMOOTH",
"477 538 OFFCURVE",
"445 452 OFFCURVE",
"425 399 CURVE SMOOTH",
"302 76 LINE",
"148 76 LINE"
);
}
);
width = 514;
}
);
script = mand;
category = Letter;
subCategory = Composition;
},
{
glyphname = uni0848.Fina_Short;
lastChange = "2020-03-30 20:46:50 +0000";
layers = (
{
anchors = (
{
name = bottom;
position = "{282, -49}";
}
);
layerId = UUID0;
paths = (
{
closed = 1;
nodes = (
"624 0 LINE",
"624 76 LINE",
"495 76 LINE",
"607 381 LINE SMOOTH",
"636 459 OFFCURVE",
"661 533 OFFCURVE",
"661 589 CURVE SMOOTH",
"661 670 OFFCURVE",
"618 724 OFFCURVE",
"539 724 CURVE SMOOTH",
"458 724 OFFCURVE",
"408 663 OFFCURVE",
"379 589 CURVE SMOOTH",
"179 76 LINE",
"49 76 LINE",
"49 0 LINE"
);
},
{
closed = 1;
nodes = (
"449 562 LINE SMOOTH",
"469 612 OFFCURVE",
"494 651 OFFCURVE",
"534 651 CURVE SMOOTH",
"576 651 OFFCURVE",
"587 617 OFFCURVE",
"587 586 CURVE SMOOTH",
"587 537 OFFCURVE",
"556 452 OFFCURVE",
"536 399 CURVE SMOOTH",
"412 76 LINE",
"258 76 LINE"
);
}
);
width = 624;
}
);
script = mand;
category = Letter;
subCategory = Composition;
},
{
glyphname = uni200C;
production = uni200C;
lastChange = "2019-12-30 14:32:58 +0000";
layers = (
{
layerId = UUID0;
paths = (
{
closed = 1;
nodes = (
"21 -133 LINE",
"21 628 LINE",
"-21 628 LINE",
"-21 -133 LINE"
);
}
);
width = 0;
}
);
unicode = 200C;
},
{
glyphname = uni200D;
production = uni200D;
lastChange = "2019-12-30 14:33:42 +0000";
layers = (
{
layerId = UUID0;
paths = (
{
closed = 1;
nodes = (
"21 -133 LINE",
"21 535 LINE",
"83 473 LINE",
"109 500 LINE",
"27 582 LINE",
"109 663 LINE",
"83 690 LINE",
"0 607 LINE",
"-83 690 LINE",
"-109 663 LINE",
"-27 582 LINE",
"-109 500 LINE",
"-83 473 LINE",
"-21 535 LINE",
"-21 -133 LINE"
);
}
);
width = 0;
}
);
unicode = 200D;
},
